<svg width="87" height="87" viewBox="0 0 87 87" fill="none" xmlns="http://www.w3.org/2000/svg">
<path d="M70.6876 54.3751C68.8514 54.3824 67.0725 55.0153 65.6443 56.1694L59.8126 52.8063V48.44C61.6266 47.7987 63.1554 46.5367 64.1289 44.8772C65.1025 43.2176 65.458 41.2673 65.1326 39.371C64.8073 37.4747 63.822 35.7544 62.351 34.5143C60.8799 33.2742 59.0179 32.594 57.0938 32.594C55.1698 32.594 53.3077 33.2742 51.8367 34.5143C50.3657 35.7544 49.3804 37.4747 49.055 39.371C48.7297 41.2673 49.0852 43.2176 50.0587 44.8772C51.0322 46.5367 52.5611 47.7987 54.3751 48.44V52.8063L48.5434 56.1749C47.1159 55.0188 45.337 54.3839 43.5001 54.3751C41.7959 54.3635 40.1304 54.8826 38.7344 55.8602C37.3385 56.8378 36.2814 58.2256 35.7097 59.8311C35.138 61.4365 35.08 63.1801 35.5438 64.82C36.0076 66.4599 36.9702 67.9148 38.2981 68.983C39.6259 70.0512 41.2533 70.6798 42.9545 70.7815C44.6557 70.8832 46.3463 70.453 47.792 69.5506C49.2377 68.6483 50.3668 67.3184 51.0227 65.7454C51.6786 64.1725 51.8288 62.4344 51.4524 60.7723L57.0938 57.5152L62.7352 60.7723C62.3721 62.4205 62.5296 64.1408 63.186 65.6957C63.8423 67.2506 64.9652 68.5634 66.3995 69.4528C67.8338 70.3423 69.5089 70.7646 71.1935 70.6614C72.8781 70.5583 74.4891 69.9347 75.8041 68.8768C77.1192 67.8189 78.0734 66.3789 78.5351 64.7555C78.9968 63.1322 78.9431 61.4055 78.3816 59.8139C77.82 58.2223 76.7783 56.8443 75.4001 55.8701C74.0219 54.8959 72.3753 54.3735 70.6876 54.3751ZM43.5001 65.2501C42.9624 65.2501 42.4367 65.0906 41.9896 64.7919C41.5425 64.4931 41.1941 64.0685 40.9883 63.5717C40.7825 63.0749 40.7287 62.5283 40.8336 62.0009C40.9385 61.4735 41.1974 60.9891 41.5776 60.6089C41.9579 60.2286 42.4423 59.9697 42.9697 59.8648C43.4971 59.7599 44.0437 59.8137 44.5405 60.0195C45.0373 60.2253 45.4619 60.5738 45.7606 61.0209C46.0594 61.4679 46.2188 61.9936 46.2188 62.5313C46.2188 63.2524 45.9324 63.9439 45.4225 64.4538C44.9127 64.9636 44.2211 65.2501 43.5001 65.2501ZM57.0938 38.0626C57.6315 38.0626 58.1572 38.222 58.6043 38.5208C59.0514 38.8195 59.3998 39.2441 59.6056 39.7409C59.8114 40.2377 59.8652 40.7843 59.7603 41.3117C59.6554 41.8391 59.3965 42.3235 59.0163 42.7038C58.6361 43.084 58.1516 43.3429 57.6242 43.4478C57.0968 43.5527 56.5502 43.4989 56.0534 43.2931C55.5566 43.0873 55.132 42.7389 54.8333 42.2918C54.5345 41.8447 54.3751 41.319 54.3751 40.7813C54.3751 40.0603 54.6615 39.3687 55.1714 38.8589C55.6812 38.349 56.3728 38.0626 57.0938 38.0626ZM70.6876 65.2501C70.1499 65.2501 69.6242 65.0906 69.1771 64.7919C68.73 64.4931 68.3816 64.0685 68.1758 63.5717C67.97 63.0749 67.9162 62.5283 68.0211 62.0009C68.126 61.4735 68.3849 60.9891 68.7651 60.6089C69.1454 60.2286 69.6298 59.9697 70.1572 59.8648C70.6846 59.7599 71.2312 59.8137 71.728 60.0195C72.2248 60.2253 72.6494 60.5738 72.9481 61.0209C73.2469 61.4679 73.4063 61.9936 73.4063 62.5313C73.4063 63.2524 73.1199 63.9439 72.61 64.4538C72.1002 64.9636 71.4086 65.2501 70.6876 65.2501Z" fill="white"/>
<path d="M43.5 84.2813C35.5712 84.2719 27.9699 81.1181 22.3634 75.5116C16.7569 69.9051 13.6031 62.3038 13.5938 54.375V17.3511L43.4647 2.39795L71.9028 16.636L69.4695 21.4972L43.4647 8.47707L19.0312 20.7114V54.375C19.0307 58.9194 20.2958 63.3741 22.6846 67.24C25.0734 71.1059 28.4915 74.2301 32.556 76.2626C36.6205 78.2952 41.1707 79.1557 45.6968 78.7477C50.2228 78.3397 54.5458 76.6794 58.1812 73.9527L61.4438 78.3C56.2764 82.2003 49.974 84.3011 43.5 84.2813Z" fill="white"/>
</svg>
