<svg width="100" height="100" viewBox="0 0 100 100" fill="none" xmlns="http://www.w3.org/2000/svg">
<path d="M54.1667 21.1249C61.454 22.1928 68.0678 25.9773 72.6807 31.7189C77.2936 37.4606 79.5643 44.7345 79.0369 52.0807C78.5095 59.4269 75.2232 66.3019 69.8375 71.3258C64.4517 76.3496 57.3652 79.1506 50 79.1666C44.1271 79.1668 38.3909 77.394 33.5421 74.0802C28.6933 70.7665 24.9579 66.0661 22.8246 60.5943C20.6914 55.1224 20.2597 49.1341 21.586 43.4128C22.9124 37.6916 25.935 32.5041 30.2584 28.5291L24.3625 22.6333C17.8628 28.7242 13.7434 36.9299 12.7421 45.7811C11.7408 54.6323 13.923 63.5509 18.8979 70.9399C23.8727 78.3289 31.3154 83.7057 39.8931 86.1075C48.4709 88.5093 57.6235 87.7793 65.712 84.0482C73.8006 80.317 80.2969 73.8285 84.0376 65.7443C87.7783 57.6602 88.5192 48.5085 86.1275 39.9279C83.7359 31.3473 78.3679 23.8983 70.9848 18.9147C63.6017 13.9311 54.6857 11.7383 45.8334 12.7291V37.8541H54.1667V21.1249Z" fill="white"/>
<path d="M32.1125 36.279C31.3314 37.0604 30.8926 38.12 30.8926 39.2249C30.8926 40.3297 31.3314 41.3893 32.1125 42.1707L43.9 53.9582C44.6859 54.7172 45.7384 55.1372 46.8309 55.1277C47.9233 55.1182 48.9684 54.68 49.7409 53.9074C50.5135 53.1349 50.9517 52.0898 50.9612 50.9974C50.9707 49.9049 50.5507 48.8524 49.7917 48.0665L38 36.279C37.2187 35.4979 36.159 35.0591 35.0542 35.0591C33.9493 35.0591 32.8939 35.4979 32.1125 36.279Z" fill="white"/>
</svg>
