<svg width="80" height="80" viewBox="0 0 80 80" fill="none" xmlns="http://www.w3.org/2000/svg">
<path fill-rule="evenodd" clip-rule="evenodd" d="M30.6867 10.6067C24.8496 12.4559 19.6952 16.0012 15.8804 20.7908C12.0656 25.5803 9.76327 31.3972 9.26675 37.5001H24.2001C24.3101 33.8467 24.6501 30.2467 25.2167 26.8334C25.9067 22.6534 26.9334 18.8001 28.2501 15.5001C28.9166 13.8004 29.732 12.1629 30.6867 10.6067ZM40.0001 4.16675C35.2944 4.16675 30.6348 5.0936 26.2873 6.8944C21.9398 8.69519 17.9895 11.3347 14.6621 14.6621C11.3347 17.9895 8.69519 21.9398 6.8944 26.2873C5.0936 30.6348 4.16675 35.2944 4.16675 40.0001C4.16675 44.7058 5.0936 49.3654 6.8944 53.7129C8.69519 58.0604 11.3347 62.0106 14.6621 65.3381C17.9895 68.6655 21.9398 71.305 26.2873 73.1058C30.6348 74.9066 35.2944 75.8334 40.0001 75.8334C49.5037 75.8334 58.618 72.0581 65.3381 65.3381C72.0581 58.618 75.8334 49.5037 75.8334 40.0001C75.8334 30.4965 72.0581 21.3821 65.3381 14.6621C58.618 7.94203 49.5037 4.16675 40.0001 4.16675ZM40.0001 9.16675C39.1301 9.16675 38.0034 9.58675 36.6967 10.9401C35.3767 12.3067 34.0601 14.4434 32.8934 17.3567C31.7367 20.2534 30.7934 23.7467 30.1467 27.6534C29.6301 30.7867 29.3134 34.1101 29.2067 37.5001H50.7934C50.6971 34.2008 50.3831 30.9114 49.8534 27.6534C49.2067 23.7467 48.2634 20.2534 47.1067 17.3567C45.9401 14.4434 44.6234 12.3067 43.3067 10.9401C41.9967 9.58675 40.8734 9.16675 40.0001 9.16675ZM55.8001 37.5001C55.7 33.9258 55.3603 30.3623 54.7834 26.8334C54.0934 22.6534 53.0667 18.8001 51.7501 15.5001C51.0825 13.8003 50.266 12.1628 49.3101 10.6067C54.0233 12.0975 58.3084 14.7008 61.8034 18.1967C66.9741 23.3689 70.138 30.2106 70.7301 37.5001H55.8001ZM50.7934 42.5001H29.2067C29.3101 45.8901 29.6301 49.2134 30.1467 52.3467C30.7934 56.2534 31.7367 59.7467 32.8934 62.6434C34.0601 65.5567 35.3767 67.6934 36.6934 69.0601C38.0034 70.4134 39.1267 70.8334 40.0001 70.8334C40.8701 70.8334 41.9967 70.4134 43.3034 69.0601C44.6234 67.6934 45.9401 65.5567 47.1067 62.6434C48.2634 59.7467 49.2067 56.2534 49.8534 52.3467C50.3701 49.2134 50.6867 45.8901 50.7934 42.5001ZM49.3134 69.3934C50.2134 67.9468 51.0301 66.2967 51.7467 64.5001C53.0667 61.2001 54.0934 57.3467 54.7834 53.1667C55.3592 49.6378 55.6977 46.0743 55.7967 42.5001H70.7301C70.2336 48.603 67.9312 54.4199 64.1164 59.2094C60.3017 63.9989 55.1506 67.5442 49.3134 69.3934ZM30.6834 69.3934C29.7298 67.8371 28.9156 66.1996 28.2501 64.5001C26.9301 61.2001 25.9034 57.3467 25.2134 53.1667C24.6376 49.6378 24.2991 46.0743 24.2001 42.5001H9.26675C9.76302 48.6026 12.0649 54.4192 15.879 59.2087C19.6932 63.9982 24.8469 67.5437 30.6834 69.3934Z" fill="white"/>
</svg>
