<?xml version="1.0" encoding="utf-8" ?><svg xmlns="http://www.w3.org/2000/svg" xmlns:xlink="http://www.w3.org/1999/xlink" width="1280" height="1280" viewBox="0 0 1280 1280"><path fill="#F5F5F4" d="M322.701 412.952C330.035 411.216 338.389 411.333 345.967 410.058C366.708 406.567 387.871 402.37 408.368 397.712C419.147 395.263 429.72 391.891 440.357 388.9C474.52 379.294 508.147 368.282 541.864 357.238C553.498 353.427 565.151 349.371 576.539 344.878C588.712 340.075 636.407 318.433 644.943 318.328C647.504 318.296 650.053 318.862 652.477 319.654C662.431 322.909 672.025 327.558 681.797 331.339C704.024 339.938 726.651 348.41 749.108 356.376C779.496 367.114 810.071 377.317 840.818 386.979C867.028 395.032 892.251 402.395 919.604 406.076C935.691 408.24 952.02 409.426 968.151 411.791C975.083 412.807 981.643 412.638 988.916 414.08C989.63 415.981 987.808 447.148 987.78 452.338L987.835 532.725C987.848 546.376 988.175 564.524 987.44 577.99C987.54 596.851 987.343 615.999 986.944 634.855C986.646 648.96 987.621 669.707 985.698 683.397C983.551 755.625 954.812 833.937 916.977 895.065C865.031 978.993 788.56 1044.44 702.313 1091.35C690.544 1097.75 658.819 1113.91 645.807 1117.04C636.914 1115.18 622.882 1108.59 614.407 1104.57C548.378 1073.25 484.977 1027.97 433.542 976.191C386.336 927.558 353.279 869.782 332.566 805.415C318.879 762.879 309.476 719.411 305.303 674.881C303.974 660.707 304.446 643.403 304.38 629.012L304.436 549.453C304.485 520.805 304.815 492.187 304.828 463.553C304.836 447.576 303.645 432.062 303.907 415.97C306.896 412.389 318.024 412.995 322.701 412.952ZM926.687 457.125L926.074 455.455C924.984 454.762 902.376 452.866 898.774 452.485C810.535 443.157 727.137 416.101 646.434 380.262C643.702 379.049 624.689 390.01 620.905 390.823C606.839 396.945 592.643 402.186 578.285 407.55C533.81 423.73 488.036 436.085 441.461 444.483C426.122 447.202 410.246 449.998 394.793 452.211C387.497 453.255 370.338 452.123 364.712 455.665C366.04 475.052 364.668 499.33 364.9 519.303C365.261 550.305 364.883 581.605 364.987 612.636C365.018 622.004 363.966 631.936 363.992 641.481C364.069 669.737 364.601 699.036 367.764 727.134C368.962 737.778 372.911 751.755 375.469 762.278C384.896 801.059 398.896 835.349 418.068 870.343C444.422 918.445 478.67 961.393 519.649 997.952C550.942 1025.87 587.153 1051.13 626.537 1066.09C631.432 1067.95 641.985 1071.56 646.994 1070.71C658.832 1068.72 673.813 1061.3 684.61 1055.87C746.061 1024.65 799.795 980.148 841.918 925.59C893.09 859.28 923.277 779.188 928.602 695.598C929.16 686.658 928.844 674.443 928.834 665.184C928.835 644.606 928.63 624.027 928.218 603.453C927.037 554.686 926.527 505.906 926.687 457.125ZM738.659 1031.31C742.909 1031.21 747.282 1030.89 750.198 1034.35C757.077 1042.53 751.259 1048.14 743.822 1051C734.742 1047.73 730.582 1041.2 737.434 1032.81C729.608 1035.48 719.307 1044.03 710.913 1048.78C695.962 1056.71 661.618 1077.03 644.706 1077.03C627.59 1077.04 585.44 1052.4 570.488 1043.09C564.925 1039.63 559.367 1034.7 553.982 1031.14C546.068 1025.9 538.687 1021.09 531.118 1015.49C496.392 988.344 464.574 955.769 437.635 920.896C430.138 911.191 423.493 899.705 417.188 889.261C373.137 815.905 348.177 732.676 344.59 647.184C343.97 633.269 345.21 619.273 345.024 605.333C344.383 557.493 346.849 509.309 346.082 461.47C342.888 456.844 319.479 428.583 315.239 427.652C314.759 439.091 315.465 451.09 315.363 462.612C314.898 493.198 314.774 523.787 314.991 554.375L314.919 613.755C314.874 633.868 314.697 652.722 317.133 672.747C317.711 677.507 317.405 682.87 317.978 687.771C329.489 786.162 364.174 883.528 431.825 957.491C446.045 973.025 460.999 987.479 476.493 1001.61C483.857 1008.24 494.921 1016.6 502.85 1022.84C511.329 1029.51 525.759 1041.27 534.809 1046.9C538.441 1049.74 541.519 1051.76 545.386 1054.29C569.95 1070.47 617.699 1097.9 645.798 1106.81C651.219 1105.1 661.094 1100.53 666.5 1098.04C690.199 1086.98 713.149 1074.37 735.204 1060.31C841.887 993.394 921.808 899.687 958.902 778.367C963.073 764.727 967.795 746.618 970.244 732.661C972.087 722.156 972.791 711.586 975.266 701.184L975.499 700.228C976.923 686.933 976.809 666.973 976.89 653.502C977.15 628.731 977.023 603.958 976.51 579.192C976.433 574.702 976.527 570.043 976.636 565.545C977.606 525.568 974.935 485.534 976.786 445.615C976.982 441.408 979.109 429.549 978.058 426.52C969.48 433.885 949.781 452.777 944.555 462.06C940.477 469.305 942.857 506.751 942.789 516.72L942.426 610.953C942.403 633.137 942.255 656.055 941.76 678.218C941.565 686.929 939.129 704.886 937.966 713.621C922.615 822.927 867.954 922.892 784.214 994.802C769.684 1007.51 755.462 1017.96 739.992 1029.38C739.37 1029.83 738.809 1030.53 738.659 1031.31ZM544.378 1050.92C540.493 1049.58 539.579 1048.26 536.896 1045.13C537.139 1041.41 537.91 1035.22 541.118 1032.99C554.437 1023.75 565.495 1049.62 544.378 1050.92ZM643.524 342.515C645.575 344.499 648.388 347.759 650.097 350.109C666.335 372.429 692.988 379.651 717.886 388.508C748.723 399.478 781.037 409.108 812.817 417.207C820.961 419.282 829.556 420.568 837.775 422.376C847.378 424.421 857.577 427.303 867.307 428.263C878.253 431.226 903.231 432.2 914.715 431.328C929.465 429.871 959.909 427.389 973.225 423.272C970.4 421.201 963.697 421.101 959.847 420.676C942.676 420.646 922.424 415.396 905.394 412.392C878.438 407.636 851.068 401.607 825.042 393.039C795.167 382.981 764.719 374.105 735.777 361.541C733.485 360.546 729.751 359.531 727.249 358.841C699.753 351.259 672.91 337.066 645.587 330.065C639.973 328.627 606.259 345.153 599.511 347.311C591.884 350.213 580.931 354.416 572.813 357.478C566.477 359.868 560.444 359.416 554.303 361.461C551.378 362.435 546.633 366.454 543.01 367.753C508.094 380.296 472.649 391.311 436.774 400.768C406.987 408.836 377.321 416.563 346.658 420.715C340.487 421.551 334.165 421.739 328.008 422.656L329.541 425.102C337.615 431.161 398.016 430.646 410.252 430.098C424.441 429.846 447.565 425.332 461.068 422.135C496.143 413.888 530.584 403.324 564.649 391.709C600.869 379.358 621.863 376.857 643.524 342.515Z"/><path fill="#D1D0CE" d="M987.44 577.99C987.54 596.851 987.343 615.999 986.944 634.855C986.646 648.96 987.621 669.707 985.698 683.397C983.438 662.864 984.57 639.237 984.785 618.583C984.835 613.753 983.451 592.743 984.028 589.638C984.983 592.986 985.097 608.874 986.005 614.239C986.322 616.114 985.14 624.061 985.869 628.285C987.992 623.074 984.732 589.197 987.44 577.99Z"/><path fill="#D1D0CE" d="M303.907 415.97C306.896 412.389 318.024 412.995 322.701 412.952C321.874 414.588 322.173 414.883 320.864 415.281C317.212 416.394 307.327 416.541 303.907 415.97Z"/><defs><linearGradient id="gradient_0" gradientUnits="userSpaceOnUse" x1="503.53583" y1="1038.6355" x2="688.47559" y2="347.79477"><stop offset="0" stop-color="#BCBBBB"/><stop offset="1" stop-color="#E0E0DF"/></linearGradient></defs><path fill="url(#gradient_0)" d="M643.524 342.515C645.575 344.499 648.388 347.759 650.097 350.109C666.335 372.429 692.988 379.651 717.886 388.508C748.723 399.478 781.037 409.108 812.817 417.207C820.961 419.282 829.556 420.568 837.775 422.376C847.378 424.421 857.577 427.303 867.307 428.263C878.253 431.226 903.231 432.2 914.715 431.328C929.465 429.871 959.909 427.389 973.225 423.272C974.865 424.842 975.574 424.719 977.83 425.01L978.292 426.183L978.058 426.52C969.48 433.885 949.781 452.777 944.555 462.06C940.477 469.305 942.857 506.751 942.789 516.72L942.426 610.953C942.403 633.137 942.255 656.055 941.76 678.218C941.565 686.929 939.129 704.886 937.966 713.621C922.615 822.927 867.954 922.892 784.214 994.802C769.684 1007.51 755.462 1017.96 739.992 1029.38C739.37 1029.83 738.809 1030.53 738.659 1031.31C738.486 1031.53 737.622 1032.68 737.434 1032.81C729.608 1035.48 719.307 1044.03 710.913 1048.78C695.962 1056.71 661.618 1077.03 644.706 1077.03C627.59 1077.04 585.44 1052.4 570.488 1043.09C564.925 1039.63 559.367 1034.7 553.982 1031.14C546.068 1025.9 538.687 1021.09 531.118 1015.49C496.392 988.344 464.574 955.769 437.635 920.896C430.138 911.191 423.493 899.705 417.188 889.261C373.137 815.905 348.177 732.676 344.59 647.184C343.97 633.269 345.21 619.273 345.024 605.333C344.383 557.493 346.849 509.309 346.082 461.47C342.888 456.844 319.479 428.583 315.239 427.652C313.751 427.576 313.841 427.506 312.586 426.653C312.686 422.787 316.514 422.764 319.355 423.185C322.55 422.377 324.799 422.2 328.008 422.656L329.541 425.102C337.615 431.161 398.016 430.646 410.252 430.098C424.441 429.846 447.565 425.332 461.068 422.135C496.143 413.888 530.584 403.324 564.649 391.709C600.869 379.358 621.863 376.857 643.524 342.515ZM926.687 457.125L926.074 455.455C924.984 454.762 902.376 452.866 898.774 452.485C810.535 443.157 727.137 416.101 646.434 380.262C643.702 379.049 624.689 390.01 620.905 390.823C606.839 396.945 592.643 402.186 578.285 407.55C533.81 423.73 488.036 436.085 441.461 444.483C426.122 447.202 410.246 449.998 394.793 452.211C387.497 453.255 370.338 452.123 364.712 455.665C366.04 475.052 364.668 499.33 364.9 519.303C365.261 550.305 364.883 581.605 364.987 612.636C365.018 622.004 363.966 631.936 363.992 641.481C364.069 669.737 364.601 699.036 367.764 727.134C368.962 737.778 372.911 751.755 375.469 762.278C384.896 801.059 398.896 835.349 418.068 870.343C444.422 918.445 478.67 961.393 519.649 997.952C550.942 1025.87 587.153 1051.13 626.537 1066.09C631.432 1067.95 641.985 1071.56 646.994 1070.71C658.832 1068.72 673.813 1061.3 684.61 1055.87C746.061 1024.65 799.795 980.148 841.918 925.59C893.09 859.28 923.277 779.188 928.602 695.598C929.16 686.658 928.844 674.443 928.834 665.184C928.835 644.606 928.63 624.027 928.218 603.453C927.037 554.686 926.527 505.906 926.687 457.125Z"/><path fill="#F5F5F4" d="M645.951 393.263C682.528 407.296 718.124 420.718 755.924 431.307C798.912 443.35 841.412 450.971 885.366 457.958C889.988 458.693 911.295 460.215 914.065 461.841L914.446 463.56C915.883 475.282 915.674 500.861 915.67 513.371L915.475 591.993L915.228 655.937C915.203 670.054 915.71 690.178 913.811 703.853C913.703 717.687 909.247 743.329 906.049 756.909C887.79 832.317 850.175 901.657 796.92 958.08C758.814 997.795 716.847 1029.1 665.945 1050.53C641.383 1060.87 641.386 1058.65 617.513 1047.38C490.898 987.606 396.532 858.618 379.406 719.52C375.168 685.107 376.83 645.605 376.838 610.562L376.948 462.799C386.646 460.69 404.159 458.913 414.925 457.119C447.23 451.735 477.767 447.01 509.72 439.723C557.947 428.726 600.121 409.575 645.951 393.263ZM383.788 502.662C384.431 557.693 383.173 612.902 383.43 667.942C383.465 675.55 383.536 683.469 383.991 691.058C387.708 760.117 409.385 827.011 446.878 885.125C464.817 912.797 485.765 939.716 509.375 963.002C541.66 994.845 579.094 1021.42 620.046 1040.99C647.287 1054.01 649.766 1051.09 676.566 1038.19C718.339 1018.08 756.093 991.343 788.005 957.653C837.983 903.777 877.681 839.187 895.637 767.456C897.689 759.258 903.387 739.082 903.227 731.252C903.459 726.236 905.162 720.593 905.207 715.843C905.324 703.485 906.822 691.359 907.582 679.116C908.553 663.481 906.5 646.687 908.049 631.118C907.549 619.315 908.738 598.347 908.927 585.782C909.287 560.285 909.254 534.784 908.828 509.288C908.776 504.492 909.452 473.424 907.084 468.671C906.837 468.177 898.377 466.734 896.245 466.464C817.558 456.503 741.195 435.756 666.753 408.714C662.942 407.918 649.196 400.363 646.071 401.351C621.81 409.02 597.116 418.841 572.98 426.915C551.222 434.348 529.132 440.775 506.782 446.175C475.998 453.349 443.85 458.589 412.755 464.499C404.136 466.138 393.65 468.224 384.894 468.65L384.166 468.678C382.718 476.183 384.502 494.096 383.788 502.662Z"/><path fill="#D1D0CE" d="M914.446 463.56C915.883 475.282 915.674 500.861 915.67 513.371L915.475 591.993L915.228 655.937C915.203 670.054 915.71 690.178 913.811 703.853C912.225 680.937 913.432 662.311 913.651 639.699L913.787 562.506L913.597 502.594C913.541 490.666 913.121 475.216 914.446 463.56Z"/><path fill="#F5F5F4" d="M592.527 709.395C591.289 704.968 591.951 616.009 593.219 610.36C594.773 603.442 598.915 596.976 605.093 593.339C608.129 591.553 611.818 590.765 615.294 590.378C625.551 589.237 669.624 589.066 678.293 591.275C685.043 592.071 696.063 603.01 696.506 609.782C698.108 634.255 697.744 659.464 697.505 684.04C697.245 710.718 702.502 723.449 676.22 737.443C675.252 749.607 672.258 752.687 659.967 752.61C660.086 759.792 662.179 773.072 656.036 777.746C655.555 777.814 655.073 777.876 654.591 777.931C626.177 781.184 631.762 774.823 630.16 752.622C617.157 752.259 614.768 750.693 614.32 737.662C601.584 730.779 593.06 725.73 592.527 709.395ZM614.572 653.025C616.429 652.181 618.606 651.337 620.514 650.542C635.504 657.556 630.537 662.691 621.88 672.572L625.333 679.647C630.794 682.885 636.715 685.357 642.566 687.807C641.917 669.453 643.129 650.192 642.322 632.206C639.946 632.292 637.43 632.671 635.401 631.615C633.185 627.036 640.332 614.846 644.426 612.223L646.026 612.057C648.89 614.713 653.427 625.801 654.961 629.916C652.76 630.963 649.947 632.404 647.716 633.221C647.828 647.318 647.596 662.298 648.111 676.303C654.096 671.291 666.205 667.666 667.621 658.978C666.768 656.583 667.44 657.571 665.537 655.896C663.266 655.334 662.337 655.409 660.044 655.383C660.091 649.533 660.014 643.19 660.228 637.386C665.808 637.26 673.33 636.858 678.758 637.034C678.78 642.262 680.096 650.29 677.363 654.45C674.83 656.01 674.104 655.544 670.726 655.618C670.844 659.012 671.071 662.957 671.051 666.304C663.963 674.369 657.125 675.574 648.069 683.993C647.728 697.318 647.714 710.649 648.027 723.974C658.866 724.327 670.184 725.954 679.688 720.655C681.731 717.582 684.544 713.919 684.883 710.307C685.548 703.209 685.352 695.602 685.328 688.458L685.13 651.084C685.074 641.529 686.321 622.806 684.469 614.537C683.516 610.284 681.409 606.476 677.61 604.173C675.412 602.841 672.839 602.108 670.298 601.811C663.991 601.073 620.766 601.096 615.371 602.637C611.446 603.758 608.3 606.804 606.487 610.403C605.091 613.175 604.519 616.083 604.318 619.162C603.64 629.558 603.512 708.508 605.177 713.253C606.704 717.606 610.481 721.039 614.686 722.769C622.651 726.046 633.917 724.075 642.427 723.993C642.6 711.986 644.499 701.026 637.152 691.221C634.264 688.04 629.268 687.518 625.3 685.121C619.352 681.53 620.105 677.483 617.064 672.833C610.916 663.434 608.313 663.128 614.572 653.025ZM622.158 737.495L622.192 744.756C629.625 746.397 658.937 746.227 667.314 745.5C668.661 743.732 668.14 739.919 668.018 737.457C652.732 737.224 637.443 737.237 622.158 737.495Z"/><path fill="#D1D0CE" d="M592.527 709.395C591.289 704.968 591.951 616.009 593.219 610.36C594.773 603.442 598.915 596.976 605.093 593.339C608.129 591.553 611.818 590.765 615.294 590.378C625.551 589.237 669.624 589.066 678.293 591.275L677.481 591.337C656.922 592.77 634.539 590.677 613.825 591.607C605.925 591.962 595.569 602.895 594.194 610.66C593.117 618.377 594.244 627.713 593.925 635.619C593.092 658.63 595.353 686.864 592.527 709.395Z"/><path fill="#EAE8EA" d="M656.036 777.746C659.565 765.216 656.762 761.009 658.437 750.823C659.3 752.334 658.438 754.272 659.169 757.101C659.245 755.506 659.273 754.082 659.287 752.493L659.967 752.61C660.086 759.792 662.179 773.072 656.036 777.746Z"/><path fill="#F5F5F4" d="M614.572 653.025C616.429 652.181 618.606 651.337 620.514 650.542C635.504 657.556 630.537 662.691 621.88 672.572L625.333 679.647C630.794 682.885 636.715 685.357 642.566 687.807C643.71 689.162 643.405 688.393 643.25 690.25C640.272 690.441 639.054 687.577 636.613 687.93L637.152 691.221C634.264 688.04 629.268 687.518 625.3 685.121C619.352 681.53 620.105 677.483 617.064 672.833C610.916 663.434 608.313 663.128 614.572 653.025Z"/><path fill="#CCB197" d="M637.836 783.395C641.483 783.171 650.635 781.82 652.654 784.843C653.659 792.329 652.992 809.504 653.174 817.906C692.752 826.326 712.019 867.59 690 902.42C681.378 916.058 668.384 921.981 653.136 925.525C653.044 934.229 653.383 947.551 652.621 955.792C652.108 950.945 652.425 939.041 652.441 933.7C646.088 934.024 641.32 932.698 637.344 936.14L637.417 933.769C637.101 931.286 637.017 928.077 636.873 925.521C625.418 923.14 619.898 920.779 610.365 913.755L603.702 907.822C601.239 905.354 599.479 902.015 597.768 898.992C579.917 867.45 598.928 825.941 634.495 818.956C635.974 818.666 635.833 819.028 637.48 818.231C636.786 809.29 637.075 792.186 637.836 783.395ZM653.525 850.333C662.493 853.238 667.312 856.807 674.963 862.179C676.188 863.04 678.932 861.463 679.793 860.051C679.425 853.048 660.555 845.199 654.441 844.395C649.077 843.69 641.897 844.327 636.215 844.022C628.03 846.146 612.12 850.812 610.788 860.512L611.261 861.883C615.854 863.678 622.944 856.772 626.793 854.296C634.238 849.508 645.057 849.309 653.525 850.333ZM652.278 864.024C658.2 866.09 664.171 872.716 669.352 871.211C671.755 865.148 659.004 859.456 654.45 858.353C648.503 856.913 643.304 857.017 637.296 857.602C632.356 859.372 618.84 863.79 620.403 871.069C626.621 873.638 633.296 863.909 639.554 863.328C643.885 862.926 648.056 862.986 652.278 864.024ZM638.919 878.332C646.395 872.621 654.77 883.07 659.685 879.65C660.037 877.016 660.219 878.249 659.092 875.818C653.646 871.789 649.482 870.706 642.955 870.387C637.861 870.816 631.564 873.591 630.458 879.129L631.08 880.472C634.577 881.562 635.863 880.18 638.919 878.332ZM647.742 897.344C651.004 895.878 652.478 892.059 651.046 888.781C649.615 885.503 645.811 883.989 642.519 885.386C640.358 886.302 638.856 888.309 638.585 890.641C638.315 892.973 639.319 895.271 641.213 896.657C643.107 898.044 645.6 898.306 647.742 897.344Z"/><path fill="#F5F5F4" d="M637.836 783.395C641.483 783.171 650.635 781.82 652.654 784.843C652.186 794.7 652.334 808.601 652.637 818.561C649.774 818.602 639.623 819.036 637.48 818.231C636.786 809.29 637.075 792.186 637.836 783.395Z"/><path fill="#F5F5F4" d="M637.604 925.906C642.549 926.017 647.55 926.184 652.489 926.05L652.441 933.7C646.088 934.024 641.32 932.698 637.344 936.14L637.417 933.769C637.521 931.14 637.666 928.536 637.604 925.906Z"/><path fill="#C2AE9C" d="M611.271 901.607C613.838 905.704 615.176 908.386 612.335 912.71L610.365 913.755L603.702 907.822C605.181 903.044 606.72 903.356 611.271 901.607Z"/><path fill="#BEA28E" d="M638.919 878.332C636.995 881.436 634.984 884.444 631.058 883.535C628.541 881.103 626.586 877.428 627.751 873.89C629.89 872.4 640.508 869.182 642.955 870.387C637.861 870.816 631.564 873.591 630.458 879.129L631.08 880.472C634.577 881.562 635.863 880.18 638.919 878.332Z"/><path fill="#CCB197" d="M756.17 718.674L755.772 718.242C753.485 715.715 748.126 709.934 751.564 706.785C757.901 705.781 767.806 706.089 774.51 706.09L811.765 706.141C824.066 706.198 836.366 706.19 848.667 706.117C854.193 706.087 866.633 705.195 872.07 707.139C872.718 707.371 872.702 708.199 872.868 708.928C871.454 712.761 869.291 715.519 867.422 719.096C866.144 721.545 865.478 724.326 864.111 726.799C842.139 766.554 778.687 766.525 758.215 725.378C757.689 724.319 757.409 722.805 757.181 721.659C757.064 720.217 756.803 720.096 756.17 718.674ZM835.006 742.8L832.509 744.289L832.521 744.938L833.628 745.369C847.339 740.067 852.257 732.1 856.718 718.596C853.118 724.767 842.522 741.817 835.006 742.8Z"/><path fill="#75523E" d="M756.17 718.674C766.114 719.1 780.799 719.121 790.313 720.404L790.063 720.771C782.308 721.979 765.312 721.98 757.181 721.659C757.064 720.217 756.803 720.096 756.17 718.674Z"/><path fill="#BEA28E" fill-opacity="0.035294119" d="M856.718 718.596C852.257 732.1 847.339 740.067 833.628 745.369L832.521 744.938L832.509 744.289L835.006 742.8C842.522 741.817 853.118 724.767 856.718 718.596Z"/><path fill="#9F816F" d="M833.628 745.369C830.968 747.441 827.075 747.371 823.961 746.586C825.844 744.72 829.592 745.225 831.834 743.508C833.203 742.458 833.015 742.835 835.006 742.8L832.509 744.289L832.521 744.938L833.628 745.369Z"/><path fill="#CCB197" d="M532.584 721.863C532.547 722.084 532.365 723.25 532.298 723.412C521.823 749.005 490.608 761.154 465.045 754.895C437.813 748.227 427.099 733.592 417.442 708.939C417.583 708.337 417.725 707.735 417.866 707.134C420.19 705.472 462.91 706.176 469.969 706.175L510.857 706.113C516.112 706.062 536.206 704.857 539.388 706.95C541.117 711.694 535.648 717.556 531.991 720.028L530.218 719.912L522.745 720.119L522.935 720.101C521.617 720.866 521.925 721.035 520.88 720.898L521.324 720.364L520.439 720.844L522.83 720.258L521.892 721.165C526.14 721.328 527.801 721.388 532.123 720.513L532.584 721.863ZM449.357 739.624C445.006 735.398 436.924 724.446 435.057 723.08C434.514 724.044 434.878 723.852 435.147 725.091C436.986 733.559 446.637 741.169 454.329 744.247L455.421 743.804C452.866 742.389 451.522 741.571 449.357 739.624Z"/><path fill="#75523E" d="M495.921 720.508C505.882 719.493 520.249 718.632 530.218 719.912L522.745 720.119L522.935 720.101C521.617 720.866 521.925 721.035 520.88 720.898L521.324 720.364L520.439 720.844L522.83 720.258L521.892 721.165C526.14 721.328 527.801 721.388 532.123 720.513L532.584 721.863C522.596 721.642 505.58 722.229 495.921 720.508Z"/><path fill="#9F816F" d="M449.357 739.624C455.772 741.186 458.585 745.053 464.527 745.491C465.441 745.558 467.171 745.887 468.174 746.037C461.381 747.469 459.934 748.729 454.329 744.247L455.421 743.804C452.866 742.389 451.522 741.571 449.357 739.624Z"/><path fill="#F5F5F4" d="M613.236 481.428C621.873 480.284 637.154 480.635 646.342 480.711C654.954 480.782 667.484 480.337 675.721 480.831C676.457 501.891 675.318 523.635 676.159 544.656C671.478 543.651 663.199 540.959 659.251 538.358C656.381 537.645 652.415 536.379 649.634 536.735C645.941 536.951 641.976 536.606 638.773 537.803C637.212 540.116 635.049 541.48 632.702 543.034C629.88 548.391 624.176 550.615 618.386 551.048L617.883 548.49C615.582 546.787 615.311 547.786 611.628 547.057L611.012 545.537C613.596 545.765 615.297 545.703 617.906 545.632C614.867 544.618 613.695 544.97 612.976 541.894C613.485 521.821 612.691 501.346 613.236 481.428ZM641.141 529.374C638.709 530.173 639.385 529.422 638.414 531.135C640.294 534.004 647.729 532.916 650.812 532.528C651.929 531.156 651.551 531.931 651.62 530.02C649.047 529.554 643.935 529.49 641.141 529.374ZM620.244 514.387C624.221 514.463 628.08 514.46 632.033 514.933L632.723 514.971C633.726 514.763 633.735 514.655 634.673 514.181C635.628 511.449 635.177 508.082 635.044 505.086C629.651 505.042 625.498 504.928 620.113 505.652C620.073 508.521 620.184 511.508 620.244 514.387ZM669.109 514.546C669.038 511.39 668.931 508.703 668.684 505.536C663.805 504.871 660.619 504.535 655.61 505.157C654.945 509.09 654.112 510.602 656.139 513.71C659.453 515.527 665.055 514.703 669.109 514.546Z"/><path fill="#BEA28E" d="M612.976 541.894C616.961 544.674 621.973 541.275 626.915 540.924C629.386 542.892 628.892 542.904 632.702 543.034C629.88 548.391 624.176 550.615 618.386 551.048L617.883 548.49C615.582 546.787 615.311 547.786 611.628 547.057L611.012 545.537C613.596 545.765 615.297 545.703 617.906 545.632C614.867 544.618 613.695 544.97 612.976 541.894Z"/><path fill="#D1D0CE" d="M633.989 535.756C636.056 533.772 636.016 533.476 636.81 530.705L636.992 530.053C638.886 528.695 638.173 529.094 641.141 529.374C638.709 530.173 639.385 529.422 638.414 531.135C640.294 534.004 647.729 532.916 650.812 532.528C651.929 531.156 651.551 531.931 651.62 530.02L652.39 529.963L652.744 531.146C654.256 536.045 655.501 533.697 659.251 538.358C656.381 537.645 652.415 536.379 649.634 536.735C645.941 536.951 641.976 536.606 638.773 537.803C636.628 536.781 637.183 535.824 633.989 535.756Z"/><path fill="#BDB1AA" d="M633.989 535.756C637.183 535.824 636.628 536.781 638.773 537.803C637.212 540.116 635.049 541.48 632.702 543.034C628.892 542.904 629.386 542.892 626.915 540.924C630.453 540.132 631.415 538.422 633.989 535.756Z"/><path fill="#F5F5F4" d="M618.567 503.525L635.68 503.54C638.549 507.866 640.495 515.998 632.723 514.971C633.726 514.763 633.735 514.655 634.673 514.181C635.628 511.449 635.177 508.082 635.044 505.086C629.651 505.042 625.498 504.928 620.113 505.652C620.073 508.521 620.184 511.508 620.244 514.387C624.221 514.463 628.08 514.46 632.033 514.933C627.833 515.531 622.757 515.339 618.457 515.306L618.567 503.525Z"/><path fill="#F5F5F4" d="M657.813 522.225L658.825 523.073C658.716 525.036 658.069 524.942 656.151 526.792L655.083 526.241L654.714 524.897C656.143 522.629 655.218 523.565 657.813 522.225Z"/><path fill="#BDB1AA" d="M640.938 545.093C644.553 544.906 646.612 544.298 649.557 546.789C653.244 549.907 652.256 555.161 648.949 558.117C645.53 558.241 642.143 558.732 639.424 556.236C635.787 552.898 638.035 548.103 640.938 545.093Z"/><path fill="#C2AE9C" d="M806.108 600.506C802.478 608.201 799.142 619.085 796.207 627.154L779.531 673.212C776.568 681.514 773.78 690.085 770.129 698.096C768.777 701.066 765.339 703.992 762.364 701.295C761.077 693.339 799.552 599.201 803.367 584.509C803.91 582.418 805.447 568.582 805.396 568.629C814.186 560.622 817.034 571.291 816.138 578.867C818.142 586.63 820.523 593.245 822.76 600.047C820.635 602.011 820.995 603.034 820.798 606.319L819.988 607.317C818.09 607.439 818.718 607.024 817.672 608.046L816.716 606.554L815.924 606.399C811.989 613.399 818.334 696.194 813.024 701.457C810.582 702.197 811.742 702.217 809.423 701.596C805.01 697.494 806.956 680.442 806.972 674.249L806.925 631.225C806.921 622.398 807.263 610.099 806.25 601.635L806.108 600.506Z"/><path fill="#BDB1AA" d="M471.022 610.132C468.48 618.088 463.59 629.378 460.524 637.58L438.02 697.513C436.434 701.627 434.049 703.101 429.785 701.499C427.864 697.096 438.01 675.64 440.074 670.078L469.95 590.602C472.924 582.468 473.957 577.049 474.682 568.561C474.89 566.131 479.703 565.072 482.158 566.312C486.117 570.495 482.727 575.103 485.781 583.259C497.514 614.681 509.118 646.279 520.075 677.98C521.688 682.645 528.83 699.001 526.52 702.369C523.101 702.796 520.203 700.336 519.117 697.235C508.742 667.611 495.613 636.857 486.551 606.899C487.117 604.813 487.461 604.245 486.808 602.171C483.163 598.375 476.24 601.291 472.145 603.306C470.606 605.408 470.881 607.487 471.022 610.132Z"/><path fill="#CCB197" d="M676.159 544.656C674.244 544.816 674.255 544.633 672.572 545.342C676.187 545.433 680.76 545.075 683.814 546.618C685.13 547.283 692.217 550.768 693.208 550.952C729.011 557.551 765.466 550.278 800.784 543.966C810.863 541.599 820.662 537.432 830.998 536.161C834.945 535.675 840.419 537.012 841.4 541.268C842.392 545.566 839.39 550.671 834.987 551.445C831.129 550.776 827.578 546.857 825.471 547.344C809.796 550.973 785.306 562.763 769.998 567.21C767.627 568.252 757.33 572.498 755.111 572.824C753.491 570.751 753.478 570.893 753.27 568.317C758.709 566.751 764.407 562.886 769.275 562.1C772.607 560.712 777.354 558.43 780.865 556.883L780.782 555.93C779.622 555.564 769.749 557.556 767.842 557.895C740.449 562.768 713.035 565.835 686.208 556.352C671.934 551.307 659.069 548.861 649.634 536.735C652.415 536.379 656.381 537.645 659.251 538.358C663.199 540.959 671.478 543.651 676.159 544.656Z"/><path fill="#BDB1AA" d="M769.275 562.1C775.144 562.328 775.996 558.916 781.869 558.947L782.346 559.845C779.37 564.058 771.96 561.09 769.998 567.21C767.627 568.252 757.33 572.498 755.111 572.824C753.491 570.751 753.478 570.893 753.27 568.317C758.709 566.751 764.407 562.886 769.275 562.1Z"/><path fill="#F5F5F4" d="M637.344 936.14C641.32 932.698 646.088 934.024 652.441 933.7C652.425 939.041 652.108 950.945 652.621 955.792C652.634 965.95 652.588 975.926 653.106 986.079L660.121 987.178C656.707 994.107 648.973 1006.72 644.637 1013.25C642.071 1009.57 629.928 991.179 630.941 987.548C632.72 986.464 635.212 986.647 637.394 986.572C636.609 972.217 637.203 950.949 637.344 936.14Z"/><path fill="#C2AE9C" d="M506.905 547.697C513.61 548.416 519.763 550.06 525.965 550.801C543.821 552.932 563.702 554.343 581.655 553.214C588.282 552.756 594.791 551.232 600.933 548.701C604.196 547.333 607.654 544.642 611.012 545.537L611.628 547.057C615.311 547.786 615.582 546.787 617.883 548.49L618.386 551.048C614.152 552.264 610.083 554.437 606.07 555.889C578.116 566.004 550.523 562.862 522.033 557.624C519.714 557.198 511.033 555.714 509.023 556.128C510.129 558.346 515.675 558.952 519.057 561.225L516.817 562.366C516.686 562.31 514.298 561.029 514.242 560.949C512.96 559.121 502.759 555.953 502.466 555.716C503.897 554.856 503.965 554.932 504.96 553.63C505.211 550.496 505.041 550.02 506.905 547.697Z"/><path fill="#C2AE9C" d="M471.022 610.132C470.881 607.487 470.606 605.408 472.145 603.306C476.24 601.291 483.163 598.375 486.808 602.171C487.461 604.245 487.117 604.813 486.551 606.899L484.023 603.021C481.323 605.781 484.452 687.864 482.604 700.046C482.203 702.688 477.298 701.886 475.528 700.18C471.62 688.743 477.201 609.22 473.764 605.681C472.27 606.946 471.849 608.337 471.022 610.132Z"/><path fill="#BDB1AA" d="M817.672 608.046C818.718 607.024 818.09 607.439 819.988 607.317L820.798 606.319C820.995 603.034 820.635 602.011 822.76 600.047C832.157 623.593 841.241 647.263 850.011 671.051C852.261 677.104 861.511 696.417 859.676 701.709C858.254 702.468 858.734 702.525 856.964 701.945C854.829 701.235 853.069 699.698 852.078 697.679C849.863 693.149 847.86 687.023 845.968 682.26C836.171 657.603 827.551 632.676 817.672 608.046Z"/><path fill="#CCB197" d="M448.355 541.879C449.725 535.628 454.68 535.79 460.111 536.658C463.167 538.109 465.974 537.578 469.001 538.598C481.479 542.803 494.246 544.675 506.905 547.697C505.041 550.02 505.211 550.496 504.96 553.63C503.965 554.932 503.897 554.856 502.466 555.716C502.759 555.953 512.96 559.121 514.242 560.949C514.298 561.029 516.686 562.31 516.817 562.366L518.917 562.683L518.767 563.216C514.543 562.954 514.416 563.055 510.44 561.743C512.632 563.511 512.865 563.477 515.677 564.177L516.779 566.509C503.447 560.141 488.108 555.963 474.555 550.297C462.614 545.304 464.874 548.008 454.708 551.157C451.197 552.245 448.711 546.648 448.355 541.879Z"/><path fill="#C2AE9C" d="M448.355 541.879C449.725 535.628 454.68 535.79 460.111 536.658L459.496 539.237C455.412 541.106 452.517 539.849 448.355 541.879Z"/><path fill="#BDB1AA" d="M656.323 561.072C661.091 556.109 667.643 559.385 674.243 561.53C698.789 569.505 721.667 576.17 747.719 569.68C749.855 569.148 751.064 568.439 753.27 568.317C753.478 570.893 753.491 570.751 755.111 572.824C749.272 575.235 745.804 575.014 740.048 576.228C711.173 582.317 692.544 569.57 666.009 563.11C663.026 562.384 663.469 562.109 660.185 563.124C660.408 561.782 660.511 561.232 660.536 559.88C658.849 560.119 657.904 560.516 656.323 561.072Z"/><defs><linearGradient id="gradient_1" gradientUnits="userSpaceOnUse" x1="559.9104" y1="560.57703" x2="560.92847" y2="576.52338"><stop offset="0" stop-color="#C8BCB6"/><stop offset="1" stop-color="#ABA095"/></linearGradient></defs><path fill="url(#gradient_1)" d="M519.057 561.225C525.554 563.514 534.967 568.182 540.692 569.534C555.767 573.093 583.805 573.691 597.735 566.752C598.442 566.403 599.13 566.015 599.796 565.591C602.109 566.536 602.812 567.094 604.914 568.52C593.949 573.525 591.125 573.953 579.736 576.13C554.276 580.996 539.729 573.772 516.779 566.509L515.677 564.177C512.865 563.477 512.632 563.511 510.44 561.743C514.416 563.055 514.543 562.954 518.767 563.216L518.917 562.683L516.817 562.366L519.057 561.225Z"/><path fill="#A29D9B" d="M624.148 558.504C633.408 557.541 634.992 561.539 640.782 568.545L649.177 568.648C651.492 566.221 654.137 563.573 656.323 561.072C657.904 560.516 658.849 560.119 660.536 559.88C660.511 561.232 660.408 561.782 660.185 563.124C658.353 568.059 650.019 571.531 645.118 571.831C637.142 572.32 632.625 566.135 626.776 562.396L626.222 562.048L624.148 558.504Z"/><path fill="#BDB1AA" d="M617.168 561.099C618.786 560.66 622.115 559.186 624.148 558.504L626.222 562.048L623.651 562.985C618.535 565.344 609.978 566.4 604.914 568.52C602.812 567.094 602.109 566.536 599.796 565.591C603.75 565.409 611.925 561.772 617.168 561.099Z"/><path fill="#929190" d="M617.168 561.099C618.786 560.66 622.115 559.186 624.148 558.504L626.222 562.048L623.651 562.985C621.9 561.883 619.277 561.537 617.168 561.099Z"/><path fill="#6F4537" fill-opacity="0.80000001" d="M530.218 719.912L531.991 720.028L532.123 720.513C527.801 721.388 526.14 721.328 521.892 721.165L522.83 720.258L520.439 720.844L521.324 720.364L520.88 720.898C521.925 721.035 521.617 720.866 522.935 720.101L522.745 720.119L530.218 719.912Z"/><path fill="#D1D0CE" d="M908.049 631.118C910.419 663.731 910.593 694.322 905.561 726.474C905.34 727.888 903.765 729.835 903.227 731.252C903.459 726.236 905.162 720.593 905.207 715.843C905.324 703.485 906.822 691.359 907.582 679.116C908.553 663.481 906.5 646.687 908.049 631.118Z"/><path fill="#D1D0CE" d="M383.788 502.662C380.289 494.18 379.189 485.853 381.767 477.194C382.482 474.792 382.039 470.211 383.166 468.428L384.166 468.678C382.718 476.183 384.502 494.096 383.788 502.662Z"/><path fill="#929190" d="M643.524 342.515C645.575 344.499 648.388 347.759 650.097 350.109C666.335 372.429 692.988 379.651 717.886 388.508C748.723 399.478 781.037 409.108 812.817 417.207C820.961 419.282 829.556 420.568 837.775 422.376C847.378 424.421 857.577 427.303 867.307 428.263C867.725 430.63 868.091 432.608 868.308 434.997C866.757 436.891 864.671 436.234 862.247 436.124C865.788 437.371 868.961 437.868 872.698 438.107C874.98 438.386 877.255 438.719 879.522 439.104C885.132 440.299 891.7 440.413 897.527 441.253C906.443 442.537 915.424 443.284 924.312 444.944C928.542 445.672 933.991 445.092 938.423 446.317C937.899 450.14 930.007 455.24 926.687 457.125L926.074 455.455C924.984 454.762 902.376 452.866 898.774 452.485C810.535 443.157 727.137 416.101 646.434 380.262C643.702 379.049 624.689 390.01 620.905 390.823C606.839 396.945 592.643 402.186 578.285 407.55C533.81 423.73 488.036 436.085 441.461 444.483C426.122 447.202 410.246 449.998 394.793 452.211C387.497 453.255 370.338 452.123 364.712 455.665C359.687 455.96 355.871 449.169 353.224 445.57C365.586 445.5 376.175 444.278 388.479 442.366C390.722 442.018 390.638 441.429 391.816 439.691C389.05 438.792 386.27 438.204 384.759 435.666L385.119 434.71C391.411 432.007 400.942 433.938 410.252 430.098C424.441 429.846 447.565 425.332 461.068 422.135C496.143 413.888 530.584 403.324 564.649 391.709C600.869 379.358 621.863 376.857 643.524 342.515Z"/><path fill="#F5F5F4" d="M643.524 342.515C645.575 344.499 648.388 347.759 650.097 350.109C666.335 372.429 692.988 379.651 717.886 388.508C748.723 399.478 781.037 409.108 812.817 417.207C820.961 419.282 829.556 420.568 837.775 422.376C847.378 424.421 857.577 427.303 867.307 428.263C867.725 430.63 868.091 432.608 868.308 434.997C866.757 436.891 864.671 436.234 862.247 436.124L861.571 435.944C857.427 434.88 853.157 434.6 848.937 433.931C837.242 432.076 825.289 430.545 813.702 428.142C806.933 426.738 800.396 424.451 793.708 422.732C786.521 420.885 779.173 419.679 772.015 417.708C755.924 413.279 740.351 407.345 724.601 401.953C696.721 392.409 667.916 383.552 644.394 365.125C623.74 386.743 586.83 394.621 559.152 403.472C538.414 410.104 518.932 418.113 497.27 421.825C492.012 422.863 486.45 425.554 481.298 426.665C475.321 427.953 469.118 429.202 463.153 430.42C442.954 434.545 412.108 443.697 391.816 439.691C389.05 438.792 386.27 438.204 384.759 435.666L385.119 434.71C391.411 432.007 400.942 433.938 410.252 430.098C424.441 429.846 447.565 425.332 461.068 422.135C496.143 413.888 530.584 403.324 564.649 391.709C600.869 379.358 621.863 376.857 643.524 342.515Z"/><path fill="#D1D0CE" d="M867.307 428.263C878.253 431.226 903.231 432.2 914.715 431.328C906.258 438.306 882.67 429.613 871.236 433.369L870.123 433.698C869.616 435.812 869.613 434.72 870.614 437.047C871.25 437.378 872.056 437.831 872.698 438.107C868.961 437.868 865.788 437.371 862.247 436.124C864.671 436.234 866.757 436.891 868.308 434.997C868.091 432.608 867.725 430.63 867.307 428.263Z"/><path fill="#F5F5F4" d="M872.698 438.107C872.056 437.831 871.25 437.378 870.614 437.047C869.613 434.72 869.616 435.812 870.123 433.698L871.236 433.369C874.12 433.554 879.514 434.068 882.207 434.026L882.589 435.016C879.725 437.159 881.045 436.722 877.692 436.73L877.739 437.573C878.924 437.893 880.045 438.192 881.24 438.483L879.522 439.104C877.255 438.719 874.98 438.386 872.698 438.107Z"/><path fill="#929190" d="M319.355 423.185C322.55 422.377 324.799 422.2 328.008 422.656L329.541 425.102C325.17 424.014 318.637 425.355 317.347 424.277L319.355 423.185Z"/><path fill="#F5F5F4" d="M361.105 803.852C377.455 802.695 382.137 820.81 366.304 827.466C353.772 827.261 348.463 821.577 353.215 809.193C355.818 807.001 357.938 805.152 361.105 803.852Z"/><path fill="#F5F5F4" d="M946.621 723.847C952.254 722.992 958.538 725.371 961.247 730.582C962.708 733.383 962.895 736.677 961.763 739.626C960.4 743.111 957.795 745.505 954.385 746.905L946.094 746.876C940.891 743.739 939.535 742.219 937.361 736.749C939.324 729.37 939.14 726.647 946.621 723.847Z"/><path fill="#F5F5F4" d="M925.299 804.115C928.718 803.076 932.422 803.611 935.407 805.575C938.393 807.538 940.351 810.728 940.751 814.279C941.376 819.835 938.092 825.089 932.824 826.961C928.711 828.422 924.13 827.542 920.852 824.66C917.575 821.778 916.115 817.346 917.038 813.081C917.961 808.815 921.123 805.384 925.299 804.115Z"/><path fill="#F5F5F4" d="M339.848 723.305C342.5 723.678 345.775 724.887 348.387 725.731C356.516 735.766 353.433 743.355 341.128 746.731C335.077 747.059 330.753 745.512 328.791 739.133C327.777 735.894 328.162 732.378 329.853 729.435C332.267 725.171 335.513 724.504 339.848 723.305Z"/><path fill="#F5F5F4" d="M329.157 637.732C334.733 637.41 338.957 640.102 340.488 645.589C341.524 649.294 340.967 653.263 338.953 656.54C336.915 659.855 333.712 660.73 330.085 661.552C318.215 657.745 314.753 654.121 319.221 641.809C323.24 638.986 324.305 638.309 329.157 637.732Z"/><path fill="#F5F5F4" d="M326.177 563.31C335.99 562.576 344.546 566.115 340.468 578.939C339.509 581.957 335.756 584.276 332.825 585.471C324.61 586.221 321.932 584.683 317.555 577.855C317.111 568.491 317.024 566.854 326.177 563.31Z"/><path fill="#F5F5F4" d="M957.418 563.205C963.491 563.006 969.799 563.38 972.974 569.288C977.253 577.252 972.702 582.048 966.067 585.363C950.047 586.808 943.409 572.617 957.418 563.205Z"/><path fill="#F5F5F4" d="M957.565 638.249C960.816 637.751 964.368 637.662 967.412 639.079C970.267 640.439 972.438 642.91 973.421 645.916C975.855 653.376 971.998 657.99 965.129 660.185C963.425 661.053 959.783 660.62 957.951 660.183C951.883 658.738 949.088 651.361 950.672 645.778C951.906 641.431 953.981 640.412 957.565 638.249Z"/><path fill="#F5F5F4" d="M326.287 478.326C343.46 475.645 348.152 491.893 333.145 500.431C327.478 501.577 322.164 500.16 319.463 494.619C318.022 491.655 317.876 488.226 319.059 485.15C320.493 481.374 322.78 479.829 326.287 478.326Z"/><path fill="#F5F5F4" d="M961.575 476.943C973.624 477.717 973.425 485.263 973.005 494.852C968.981 498.829 967.318 499.59 962.175 501.408C961.02 501.068 959.885 500.664 958.775 500.197C955.19 498.672 952.224 496 950.837 492.3C949.809 489.592 949.992 486.572 951.338 484.007C953.611 479.649 957.223 478.33 961.575 476.943Z"/><path fill="#F5F5F4" d="M422.156 916.353C437.589 916.535 439.904 934.383 426.874 938.752C409.418 938.629 409.322 919.68 422.156 916.353Z"/><path fill="#F5F5F4" d="M861.916 916.955C879.12 915.423 880.49 935.073 868.425 938.661C853.171 939.184 847.971 922.294 861.916 916.955Z"/><path fill="#EAE8EA" d="M643.28 1081.76C648.369 1080.35 653.644 1083.28 655.142 1088.35C656.641 1093.41 653.812 1098.74 648.78 1100.33C645.438 1101.39 641.785 1100.56 639.227 1098.17C636.669 1095.77 635.606 1092.18 636.446 1088.77C637.287 1085.37 639.9 1082.69 643.28 1081.76Z"/><path fill="#F5F5F4" d="M487.219 988.137C493.574 987.634 499.238 988.806 500.514 996.691C501.139 1000.55 497.893 1003.86 494.689 1005.75C480.332 1007.44 476.727 997.03 487.219 988.137Z"/><path fill="#F5F5F4" d="M796.937 988.521C801.739 986.978 806.893 989.563 808.527 994.335C810.161 999.106 807.675 1004.31 802.935 1006.03C799.788 1007.18 796.268 1006.53 793.73 1004.35C791.192 1002.16 790.032 998.778 790.698 995.496C791.363 992.213 793.749 989.546 796.937 988.521Z"/><path fill="#F5F5F4" d="M725.9 363.271C742.993 363.109 747.16 379.442 732.54 387.407C718.975 388.313 715.946 382.639 717.012 370.561C719.996 366.929 721.363 364.795 725.9 363.271Z"/><path fill="#F5F5F4" d="M558.521 363.24C562.897 362.358 567.409 363.916 570.309 367.31C573.209 370.705 574.042 375.405 572.487 379.59C570.932 383.775 567.233 386.79 562.819 387.468C556.212 388.482 550.002 384.036 548.834 377.454C547.666 370.871 551.967 364.56 558.521 363.24Z"/><path fill="#EAE8EA" d="M825.744 399.53C838.907 398.723 842.101 407.688 832.64 416.476C829.342 416.856 825.367 416.09 823.104 413.446C821.724 411.829 821.053 409.725 821.241 407.608C821.553 404.319 823.305 401.634 825.744 399.53Z"/><path fill="#F5F5F4" d="M460.129 399.439C472.555 399.316 473.431 413.639 463.244 416.227C452.288 414.6 449.171 404.573 460.129 399.439Z"/><path fill="#D1D0CE" d="M959.847 420.676C966.575 420.231 976.345 418.267 982.303 419.038C983.822 422.028 981.222 429.88 980.844 433.343C980.328 438.052 982.398 445.644 981.847 449.813C976.316 491.663 978.35 536.137 978.741 578.349C978.819 601.797 978.773 625.244 978.601 648.691C978.529 657.724 979.405 694.974 975.499 700.228C976.923 686.933 976.809 666.973 976.89 653.502C977.15 628.731 977.023 603.958 976.51 579.192C976.433 574.702 976.527 570.043 976.636 565.545C977.606 525.568 974.935 485.534 976.786 445.615C976.982 441.408 979.109 429.549 978.058 426.52L978.292 426.183L977.83 425.01C975.574 424.719 974.865 424.842 973.225 423.272C970.4 421.201 963.697 421.101 959.847 420.676Z"/><path fill="#F5F5F4" d="M536.896 1045.13C537.139 1041.41 537.91 1035.22 541.118 1032.99C554.437 1023.75 565.495 1049.62 544.378 1050.92C540.493 1049.58 539.579 1048.26 536.896 1045.13Z"/><path fill="#F5F5F4" d="M738.659 1031.31C742.909 1031.21 747.282 1030.89 750.198 1034.35C757.077 1042.53 751.259 1048.14 743.822 1051C734.742 1047.73 730.582 1041.2 737.434 1032.81C737.622 1032.68 738.486 1031.53 738.659 1031.31Z"/><defs><linearGradient id="gradient_2" gradientUnits="userSpaceOnUse" x1="541.23108" y1="1046.8052" x2="538.9776" y2="1049.7396"><stop offset="0" stop-color="#EFECED" stop-opacity="0"/><stop offset="1" stop-color="#ECEAEA" stop-opacity="0.05882353"/></linearGradient></defs><path fill="url(#gradient_2)" d="M534.809 1046.9C535.141 1046.05 535.594 1044.21 535.861 1043.26C536.328 1044.55 536.001 1043.92 536.896 1045.13C539.579 1048.26 540.493 1049.58 544.378 1050.92L546.502 1052.15C546.11 1052.95 545.835 1053.52 545.386 1054.29C541.519 1051.76 538.441 1049.74 534.809 1046.9Z"/><path fill="#F5F5F4" d="M615.214 264.897C624.021 261.384 638.406 254.631 647.705 255.736C660.124 257.211 674.149 264.607 685.96 268.928C700.529 274.259 715.336 280.41 729.741 285.791L809.306 315.519C817.319 318.601 825.447 320.94 833.368 324.324C837.026 325.921 840.655 327.583 844.253 329.31C841.143 333.63 838.381 336.033 834.106 339.265C831.458 341.381 828.937 343.143 825.386 342.615C814.94 341.062 803.912 335.24 793.78 331.64L690.343 294.183C675.745 288.838 661.604 281.505 646.092 278.299C643.264 277.715 641.054 278.073 638.322 279.066C625.368 283.772 612.425 289.024 599.476 293.781L493.334 332.865C485.082 335.814 475.657 340.263 467.203 342.061C463.74 342.797 461.123 340.895 458.515 338.873C453.325 335.433 450.434 332.893 446.261 328.368C450.829 326.002 456.941 322.705 461.79 321.419C484.618 315.363 505.858 304.693 528.195 297.442C537.726 293.252 549.261 289.483 559.059 285.786C577.656 278.768 596.742 272.174 615.214 264.897Z"/><path fill="#929190" d="M458.515 338.873C477.934 330.469 493.59 324.839 513.137 317.328L573.705 293.809L621.275 275.774C629.301 272.681 636.652 268.999 645.02 266.385C708.4 289.759 771.435 314.055 834.106 339.265C831.458 341.381 828.937 343.143 825.386 342.615C814.94 341.062 803.912 335.24 793.78 331.64L690.343 294.183C675.745 288.838 661.604 281.505 646.092 278.299C643.264 277.715 641.054 278.073 638.322 279.066C625.368 283.772 612.425 289.024 599.476 293.781L493.334 332.865C485.082 335.814 475.657 340.263 467.203 342.061C463.74 342.797 461.123 340.895 458.515 338.873Z"/><path fill="#F5F5F4" d="M584.101 154.06C582.782 156.45 583.014 156.463 581.027 157.125C578.068 155.115 577.941 149.867 578.093 146.633C578.489 138.216 576.432 95.3037 579.406 90.729C588.1 89.1516 613.824 89.902 623.761 89.9437C652.147 90.2619 680.536 90.237 708.921 89.8693C710.246 92.242 710.073 91.0234 709.501 93.6461C707.761 95.5245 703.13 96.449 702.797 97.4991C700.613 104.39 699.822 128.374 701.703 134.741C701.837 139.715 702.878 152.45 700.135 155.822C698.079 156.376 699.152 156.277 696.776 155.643C691.97 148.823 699.62 105.392 693.669 99.604C688.271 102.358 694.519 147.853 690.111 155.723C688.337 155.869 688.46 155.902 686.912 155.026C684.251 148.373 688.495 112.657 685.44 100.255L684.671 99.851C681.902 104.341 682.314 109.415 682.319 114.56C682.391 122.367 683.405 147.888 681.869 153.756C681.495 155.374 681.468 155.251 680.225 156.39C675.845 155.516 676.2 151.235 676.333 147.729C676.004 139.52 677.925 104.888 675.149 100.331L674.15 100.263L673.128 102.408C673.325 112.107 674.197 147.354 672.247 154.764L671.085 155.901L669.754 155.796C665.413 149.852 670.855 100.127 666.83 99.0866C661.788 104.121 667.188 146.148 664.696 155.447C662.407 156.38 663.485 156.352 661.382 156.039C660.582 154.736 660.655 155.27 660.593 153.906C657.904 140.371 662.68 111.291 658.73 100.48C654.907 103.842 660.451 148.667 654.945 155.628C653.405 156.413 654.213 156.311 652.557 156.254C652.407 156.102 652.248 155.958 652.106 155.798C648.975 152.247 650.508 110.822 650.761 103.331C649.803 100.672 650.307 100.945 648.043 99.9057C644.397 113.12 650.743 150.419 644.693 156.898L643.626 156.812C638.485 149.564 644.962 105.354 641.054 99.3666C634.454 110.474 642.902 137.248 637.356 154.096C636.681 156.231 637.343 155.554 635.767 156.576C627.539 150.816 637.108 107.217 631.299 99.8779L630.503 100.328C627.909 107.808 629.919 139.715 629.617 149.272C629.531 152.003 628.999 153.917 626.946 155.599L625.51 155.211C624.081 153.507 622.893 150.763 622.968 148.559C623.546 131.517 625.311 115.837 623.434 98.7431C615.519 115.893 625.238 145.737 618.142 155.541L617.169 155.486C611.908 145.826 619.776 111.51 614.907 99.649L612.741 100.9C610.579 117.426 615.541 136.404 610.987 155.025L609.332 156.15C603.403 153.499 609.531 107.364 605.962 98.892L605.15 98.9556C598.247 109.628 606.021 140.758 601.288 155.988C601.057 156.523 601.256 156.168 600.381 156.806C600.179 156.649 599.959 156.512 599.776 156.333C595.254 151.932 598.002 111.216 598.365 103.103C597.661 100.345 598.41 101.218 596.703 99.7542C589.883 103.381 598.3 144.869 591.523 155.91L590.337 156.458C588.877 155.354 589.367 155.888 588.61 154.08C588.303 152.832 588.038 150.651 587.279 150.014L585.38 150.53C584.847 151.824 584.407 152.69 584.101 154.06ZM588.184 118.168C588.087 113.833 588.502 104.712 587.296 101.278L586.675 100.898C585.565 107.657 586.356 122.71 586.99 129.952C587.713 127.865 587.989 121.729 588.178 119.174L588.184 118.168Z"/><path fill="#BDB1AA" d="M648.043 99.9057C648.315 97.4691 647.758 98.3428 649.141 96.8281C652.924 95.7803 656.285 95.395 660.116 96.6265L660.768 97.9351C660.522 116.591 660.464 135.249 660.593 153.906C657.904 140.371 662.68 111.291 658.73 100.48C654.907 103.842 660.451 148.667 654.945 155.628C653.405 156.413 654.213 156.311 652.557 156.254C652.407 156.102 652.248 155.958 652.106 155.798C648.975 152.247 650.508 110.822 650.761 103.331C649.803 100.672 650.307 100.945 648.043 99.9057Z"/><path fill="#F5F5F4" d="M650.761 103.331L651.727 100.758L652.491 100.671C653.401 104.425 652.892 107.239 653.695 110.306L654.016 137.455C654.095 142.285 655.184 152.583 652.557 156.254C652.407 156.102 652.248 155.958 652.106 155.798C648.975 152.247 650.508 110.822 650.761 103.331Z"/><path fill="#D1D0CE" d="M648.043 99.9057C648.315 97.4691 647.758 98.3428 649.141 96.8281C652.924 95.7803 656.285 95.395 660.116 96.6265L660.768 97.9351C655.019 95.8252 653.89 106.437 653.695 110.306C652.892 107.239 653.401 104.425 652.491 100.671L651.727 100.758L650.761 103.331C649.803 100.672 650.307 100.945 648.043 99.9057Z"/><path fill="#929190" d="M584.101 154.06C583.688 149.849 583.705 139.044 583.853 134.847C584.167 125.958 581.817 105.403 586.264 98.8193L587.137 98.9826C589.378 103.987 588.682 112.685 588.184 118.168C588.087 113.833 588.502 104.712 587.296 101.278L586.675 100.898C585.565 107.657 586.356 122.71 586.99 129.952C587.713 127.865 587.989 121.729 588.178 119.174C589.353 128.718 588.236 143.659 588.61 154.08C588.303 152.832 588.038 150.651 587.279 150.014L585.38 150.53C584.847 151.824 584.407 152.69 584.101 154.06Z"/><path fill="#D1D0CE" d="M690.111 155.723C688.877 148.001 689.357 134.373 689.815 126.502C690.023 122.916 688.315 118.404 688.642 114.053L688.818 117.947L689.548 117.614C690.719 111.801 688.769 100.584 693.167 97.5155C695.396 97.4369 694.498 97.0872 696.065 98.2168C698.291 110.291 696.839 124.618 697.038 137.076C697.099 140.923 697.158 152.209 696.776 155.643C691.97 148.823 699.62 105.392 693.669 99.604C688.271 102.358 694.519 147.853 690.111 155.723Z"/><path fill="#BDB1AA" d="M610.987 155.025C609.695 148.196 609.998 107.99 610.802 100.648C612.019 99.6274 612.989 99.8748 614.907 99.649L612.741 100.9C610.579 117.426 615.541 136.404 610.987 155.025Z"/><path fill="#BDB1AA" d="M673.128 102.408C673.228 100.559 673.051 98.7404 674.094 97.3374C682.944 100.907 677.816 139.211 676.333 147.729C676.004 139.52 677.925 104.888 675.149 100.331L674.15 100.263L673.128 102.408Z"/><path fill="#BDB1AA" d="M637.356 154.096C635.982 148.317 637.471 110.643 637.861 102.339C637.942 100.623 639.547 100.194 641.054 99.3666C634.454 110.474 642.902 137.248 637.356 154.096Z"/><path fill="#D1D0CE" d="M598.365 103.103C600.4 113.325 596.979 141.88 599.303 153.643C599.455 154.41 600.683 155.45 601.288 155.988C601.057 156.523 601.256 156.168 600.381 156.806C600.179 156.649 599.959 156.512 599.776 156.333C595.254 151.932 598.002 111.216 598.365 103.103Z"/><path fill="#D1D0CE" d="M681.869 153.756C679.924 150.79 681.149 116.411 682.319 114.56C682.391 122.367 683.405 147.888 681.869 153.756Z"/><path fill="#CCB197" d="M288.924 947.739C303.576 947.002 312.267 951.591 324.58 958.289L294.968 987.381C311.593 988.632 317.162 980.568 329.578 970.633C328.991 983.04 326.993 987.689 321.838 998.853C317.931 1006.25 312.824 1012.01 304.098 1013.41C288.51 1015.9 270.597 1013.15 256.931 1005.12C249.513 1000.35 255.346 988.516 256.978 982.425C260.748 968.356 273.325 950.055 288.924 947.739Z"/><defs><linearGradient id="gradient_3" gradientUnits="userSpaceOnUse" x1="1026.3367" y1="987.9552" x2="954.33636" y2="973.315"><stop offset="0" stop-color="#C19F7B"/><stop offset="1" stop-color="#D7BDA9"/></linearGradient></defs><path fill="url(#gradient_3)" d="M990.456 988.785C985.071 984.155 961.401 963.921 959.908 959.184C961.689 955.79 968.996 952.125 972.647 950.866C988.153 945.52 1005.06 947.496 1015.41 961.556C1019.74 967.439 1024.16 975.211 1025.49 982.456C1028.26 987.66 1029.01 996.081 1029.31 1001.93C1024.54 1005.11 1018.97 1008.72 1013.28 1010.03C1009.08 1011.69 1006.46 1012.36 1002.05 1013.01C971.591 1017.49 956.206 999.333 952.901 970.541C955.416 972.361 959.004 975.807 961.366 977.884C972.887 988.013 977.151 987.316 990.456 988.785Z"/><path fill="#BEA28E" d="M1025.49 982.456C1028.26 987.66 1029.01 996.081 1029.31 1001.93C1024.54 1005.11 1018.97 1008.72 1013.28 1010.03C1013.03 1009.35 1013.21 1009.75 1012.54 1008.83L1011.96 1008.04L1012.79 1007.3C1017.78 1006.57 1018.88 1006.36 1023.43 1004.1C1023.4 1003.74 1023.33 1003.09 1023.4 1002.78C1024.82 996.449 1023.61 990.025 1023.7 983.392L1024.4 983.636C1024.17 985.244 1023.96 985.417 1024.56 986.863L1026.11 987.194L1024.9 983.482L1025.49 982.456Z"/><path fill="#F5F5F4" d="M510.047 193.835C509.822 187.457 508.742 181.836 517.425 181.983C530.308 182.203 543.207 182.053 556.091 181.969C598.898 181.247 641.743 182.455 684.441 182.701C704.598 182.726 724.755 182.563 744.91 182.211C755.342 182.084 769.275 181.594 779.448 182.242C781.517 184.299 781.149 185.24 781.343 188.036C782.01 197.633 769.499 194.006 763.737 194.155C754.521 194.394 745.199 194.092 735.982 193.854C729.599 193.775 722.731 194.293 716.174 194.319L649.628 194.356C637.58 194.389 613.278 193.501 602.144 194.413C592.162 193.925 576.983 194.172 566.93 194.404C554.496 193.963 541.959 194.346 529.518 194.246C523.301 194.196 516.082 194.565 510.047 193.835Z"/><defs><linearGradient id="gradient_4" gradientUnits="userSpaceOnUse" x1="1073.4442" y1="920.25507" x2="1001.3951" y2="911.87738"><stop offset="0" stop-color="#BE9B7B"/><stop offset="1" stop-color="#D8C0A7"/></linearGradient></defs><path fill="url(#gradient_4)" d="M1029.73 885.198C1055.7 882.955 1068.84 908.433 1073.26 930.248C1075.36 940.573 1051.11 946.009 1043.58 946.976C1030.16 948.702 1022.64 946.933 1012.09 938.605C1010.27 936.574 1007.78 933.751 1006.45 931.487C1003.83 927.028 999.041 914.504 1000.25 909.614C1003.12 909.16 1007.1 915.76 1009.55 917.214C1014.11 919.921 1026.66 925.5 1031.51 923.245C1032.74 918.478 1008.11 905.451 1006.28 897.031C1007.18 891.45 1024.71 886.064 1029.73 885.198Z"/><defs><linearGradient id="gradient_5" gradientUnits="userSpaceOnUse" x1="281.10602" y1="916.96649" x2="211.85916" y2="914.37122"><stop offset="0" stop-color="#BFA18A"/><stop offset="1" stop-color="#DBBE9F"/></linearGradient></defs><path fill="url(#gradient_5)" d="M246.641 885.218C256.625 884.453 270.561 891.122 278.325 897.351C266.746 908.472 259.381 913.807 247.005 923.617C258.144 924.274 265.911 922.522 274.988 915.7C277.069 914.136 279.838 911.7 282.156 911.086C284.039 916.278 277.9 927.979 275.082 932.516C270.58 938.597 264.08 945.539 255.785 946.582C242.859 948.274 224.781 944.254 214.023 937.323C204.135 930.953 218.74 904.822 224.221 898.513C229.864 892.019 237.898 885.91 246.641 885.218Z"/><defs><linearGradient id="gradient_6" gradientUnits="userSpaceOnUse" x1="1110.1917" y1="844.96588" x2="1043.2488" y2="843.26251"><stop offset="0" stop-color="#BD9E7F"/><stop offset="1" stop-color="#D6BDA6"/></linearGradient></defs><path fill="url(#gradient_6)" d="M1074.24 815.17C1080.16 815.106 1085.5 817.527 1090.79 820.472C1098.2 824.32 1117.63 848.72 1109.7 856.195C1093.9 871.089 1070.34 881.19 1051.45 865.433C1047.17 861.174 1041.05 854.046 1041.99 847.614C1047.98 845.69 1056.33 858.235 1075.94 851.487L1076.81 851.182C1070.6 848.568 1045.66 837.979 1044.48 832.31C1045.16 830.445 1045.76 830.308 1047.22 829.174C1058.65 820.346 1060.17 818.506 1074.24 815.17Z"/><defs><linearGradient id="gradient_7" gradientUnits="userSpaceOnUse" x1="238.70271" y1="838.01324" x2="171.87697" y2="852.50903"><stop offset="0" stop-color="#BCA189"/><stop offset="1" stop-color="#DABEA1"/></linearGradient></defs><path fill="url(#gradient_7)" d="M205.157 815.812C219.127 814.574 230.028 824.656 239.758 833.222C226.445 842.758 219.755 845.981 204.708 851.2C220.896 854.859 229.956 854.069 243.493 843.803C240.816 850.618 239.482 855.106 234.872 860.698C218.661 885.072 184.825 870.386 170.288 852.711C173.538 836.161 187.72 818.324 205.157 815.812Z"/><path fill="#C2AE9C" d="M797.988 351.831C784.503 348.052 766.074 341.504 752.458 336.94L690.973 316.862C634.468 298.591 645.55 302.549 589.693 320.13L510.141 345.75C503.596 347.918 474.884 359.125 471.064 354.251C471.65 352.42 474.297 350.769 476.029 350.215C489.743 345.825 503.279 340.381 516.782 335.525C526.996 331.852 537.48 329.139 547.703 325.731L607.936 305.151C613.715 303.136 640.479 292.778 644.2 293.563C666.027 298.162 688.321 307.57 709.496 314.871L772.2 336.688C782.694 340.26 791.876 342.745 802.477 346.701C799.317 348.062 798.756 348.287 797.988 351.831Z"/><path fill="#C2AE9C" d="M601.154 163.415C614.192 162.623 635.377 163.295 649.216 163.309C680.327 163.157 711.439 163.353 742.545 163.895C747.341 163.975 752.218 164.027 757.012 164.088C763.846 164.174 773.622 161.635 769.291 172.599C766.18 174.779 698.539 173.985 691.406 173.98C672.587 173.682 523.739 174.934 520.698 172.786C519.768 170.565 520.107 167.379 520.155 164.87C529.861 163.377 540.885 163.917 550.8 163.843C567.597 163.717 584.349 164.089 601.154 163.415Z"/><path fill="#CCB197" d="M1106.71 770.923C1098.36 769.91 1080.66 768.36 1074.47 762.672C1074.98 759.488 1081.99 752.594 1084.34 750.022C1100.5 732.369 1123.27 736.866 1136.13 755.62C1138.16 758.534 1139.88 761.655 1141.25 764.932C1134.13 776.304 1119.89 790.236 1106.33 793.716C1098.18 795.805 1087.4 793.256 1081.64 786.79C1079.91 784.878 1073.4 778.478 1073.67 776.145C1076.53 774.798 1080.17 776.923 1083.47 777.935C1094.91 777.472 1097.65 777.743 1106.71 770.923Z"/><path fill="#C2AE9C" d="M1081.64 786.79C1079.91 784.878 1073.4 778.478 1073.67 776.145C1076.53 774.798 1080.17 776.923 1083.47 777.935C1080.86 783.12 1085.4 782.552 1081.64 786.79Z"/><path fill="#CCB197" d="M170.908 738.899C189.342 737.556 199.253 749.809 209.081 763.104C204.422 764.665 200.645 766.418 195.711 767.56C189.871 768.912 183.642 769.533 178.028 771.45C178.791 772.952 183.39 776.082 184.972 776.505C197.231 779.79 201.161 778.077 211.426 773.137C208.839 778.312 208.094 779.688 204.152 783.625C181.868 807.84 156.968 786.215 142.676 766.51C141.764 764.951 142.425 762.111 143.293 760.738C149.567 750.822 159.804 742.497 170.908 738.899Z"/><defs><linearGradient id="gradient_8" gradientUnits="userSpaceOnUse" x1="1155.5513" y1="677.93134" x2="1095.37" y2="688.52618"><stop offset="0" stop-color="#BE9F82"/><stop offset="1" stop-color="#D5BEAB"/></linearGradient></defs><path fill="url(#gradient_8)" d="M1124.69 657.64C1133.53 657.075 1140.59 658.876 1148.21 663.447C1159.4 670.161 1156.48 676.528 1150.37 686.044C1140.64 701.193 1122.38 719.58 1103.38 706.79L1094.57 699.219C1106.24 698.149 1116.84 697.114 1125.31 688.08C1113.97 688.107 1104.59 688.354 1093.2 687.78C1100.02 675.02 1108.82 659.654 1124.69 657.64Z"/><path fill="#CCB197" d="M150.988 657.714C171.732 654.246 181.007 672.977 188.519 688.038C183.794 688.35 161.507 687.263 159.864 689.809C162.323 694.946 176.213 699.456 181.656 698.121C182.769 697.848 184.806 698.81 185.629 699.709C185.71 701.772 185.783 700.761 184.621 702.874C162.9 720.82 144.638 704.843 132.533 685.834C124.54 673.281 124.87 667.756 139.209 660.96C143.578 658.89 146.203 658.238 150.988 657.714Z"/><defs><linearGradient id="gradient_9" gradientUnits="userSpaceOnUse" x1="1052.2676" y1="747.09235" x2="997.86963" y2="741.04791"><stop offset="0" stop-color="#BC9F86"/><stop offset="1" stop-color="#D7C0A3"/></linearGradient></defs><path fill="url(#gradient_9)" d="M1001.1 717.089C1037.75 714.311 1053 726.398 1052.08 764.223C1037.09 759.023 1034.95 754.465 1024.21 749.702C1027.59 756.542 1037.66 766.559 1043.36 771.812C1034.26 772.191 1028.28 772.763 1019.64 767.929C1009.04 762 994.132 726.482 1001.1 717.089Z"/><path fill="#CCB197" d="M294.465 774.452C295.898 774.505 297.401 774.253 298.299 775.627C302.434 783.304 306.735 799.478 306.087 808.15C304.554 828.663 287.416 839.178 268.942 838.369C275.477 832.319 279.901 827.955 284.416 820.251C286.678 817.378 288.478 814.878 288.155 811.141C285.147 811.015 271.874 826.961 262.555 829.809C258.767 825.024 261.488 799.478 265.354 793.586C273.329 781.434 281.388 778.001 294.465 774.452Z"/><defs><linearGradient id="gradient_10" gradientUnits="userSpaceOnUse" x1="285.45404" y1="737.84045" x2="229.98946" y2="750.46814"><stop offset="0" stop-color="#BB9E85"/><stop offset="1" stop-color="#D7C0A7"/></linearGradient></defs><path fill="url(#gradient_10)" d="M263.161 717.084C279.828 716.848 285.901 712.22 281.271 734.03C277.933 749.756 270.107 769.419 251.913 772.109C248.93 772.55 241.623 773.419 239.353 771.721C240.12 769.763 247.226 765.136 250.742 760.398C255.175 756.165 256.67 754.579 259.729 749.272L259.327 748.58C256.938 748.138 240.672 764.593 232.093 762.855C227.907 758.641 233.264 738.185 236.664 732.904C243.477 722.319 251.996 719.923 263.161 717.084Z"/><path fill="#CCB197" d="M989.319 773.367C1021.15 784.725 1024.66 799.342 1022.29 831.12C1008.82 824.825 1002.61 815.63 992.454 808.908C993.634 811.802 994.733 813.887 996.172 816.622C998.142 819.331 999.949 822.636 1002.12 825.245C1006.11 830.033 1009.93 834.367 1013.76 839.32C995.988 837.721 975.693 829.082 978.683 808.163C980.195 797.586 985.411 783.284 989.319 773.367Z"/><path fill="#BDB1AA" d="M1047.51 793.767L1052.89 794.255C1049.15 804.26 1043.56 815.531 1038.89 825.151C1007.1 890.535 960.862 946.427 907.358 995.219C901.017 1001 878.808 1020.83 872.631 1023.77L873.176 1015.42C876.262 1011.56 884.365 1005.85 888.48 1002.1C900.041 991.547 913.375 980.461 924.483 969.568C971.394 923.565 1023.43 855.127 1047.51 793.767Z"/><path fill="#CCB197" d="M1131.53 572.584C1138.07 571.958 1160.44 573.57 1158.76 582.384C1155.62 598.818 1141.52 626.95 1121.26 625.477C1116.8 625.152 1109.95 622.455 1107.21 619.241C1120.1 615.582 1124.96 612.284 1133.46 602.139C1128.47 603.394 1123.83 605.696 1118.92 607.216C1114.18 608.684 1108.67 609.117 1103.7 609.637C1108.83 591.668 1113.07 580.204 1131.53 572.584Z"/><path fill="#CCB197" d="M140.416 572.675C147.471 571.494 154.706 573.161 160.533 577.309C170.875 584.624 176.183 597.19 178.17 609.33C165.671 607.899 162.367 606.826 150.46 602.978C155.317 609.458 159.999 612.867 166.934 616.662C170.148 617.502 172.293 617.599 174.205 620.054L173.682 621.285C146.999 639.492 127.543 600.737 123.49 579.864C128.252 576.496 134.588 573.474 140.416 572.675Z"/><defs><linearGradient id="gradient_11" gradientUnits="userSpaceOnUse" x1="264.11295" y1="672.19781" x2="209.59352" y2="682.38434"><stop offset="0" stop-color="#C39E81"/><stop offset="1" stop-color="#D3BEA9"/></linearGradient></defs><path fill="url(#gradient_11)" d="M237.547 653.29C248.108 652.659 253.283 653.277 263.435 656.067C259.269 678.041 251.378 704.557 224.101 703.295C221.959 703.196 218.666 703.522 217.085 701.929C217.498 699.987 217.51 700.501 219.314 698.854C227.349 694.138 230.723 691.254 236.372 683.985C225.21 687.46 223.863 692.138 209.881 692.928C210.271 672.689 216.818 658.479 237.547 653.29Z"/><path fill="#CCB197" d="M1030.1 653.285C1041.39 652.752 1052.09 651.455 1060.77 660.588C1068.05 668.26 1071.81 679.221 1072.51 689.667C1072.62 691.346 1072.52 691.3 1071.47 692.345C1063.85 693.155 1051.41 685.817 1044.45 682.251C1047.17 685.592 1048.51 687.014 1051.66 689.952C1054.46 692.215 1065.68 699.565 1064.76 702.832C1061.33 703.766 1048.43 703.615 1044.24 701.23C1032.68 694.653 1017.1 671.033 1020.75 657.319C1021.2 655.605 1027.86 653.92 1030.1 653.285Z"/><defs><linearGradient id="gradient_12" gradientUnits="userSpaceOnUse" x1="1034.8495" y1="560.17395" x2="1102.4161" y2="569.01221"><stop offset="0" stop-color="#8B8786"/><stop offset="1" stop-color="#B6A9A6"/></linearGradient></defs><path fill="url(#gradient_12)" d="M1059.21 358.131C1067.23 370.888 1071.27 392.568 1075.38 407.329C1084.88 441.481 1091.02 476.136 1094.21 511.453C1095.32 523.955 1097.19 536.788 1097.83 549.359C1099.89 598.476 1095.55 647.653 1084.9 695.647C1080.24 716.021 1074.68 736.57 1067.88 756.324C1066.68 759.807 1065.43 763.303 1064.35 766.824C1063.79 764.062 1062.55 764.321 1060.12 763.584C1064.59 753.772 1070.79 731.903 1073.76 721.139C1086.04 677.013 1092.67 631.51 1093.52 585.717C1094.44 517.223 1084.9 452.247 1066.81 386.558C1064.28 377.343 1060.62 367.495 1059.21 358.131Z"/><path fill="#D1D0CE" d="M726.979 208.387C733.387 208.252 739.072 208.151 745.501 208.413C746.188 216.934 746.002 281.386 743.998 285.036L742.369 284.945C737.81 284.108 727.581 281.253 724.114 278.491C722.494 273.606 722.684 217.872 724.031 209.545C724.127 208.951 726.062 208.64 726.979 208.387Z"/><defs><linearGradient id="gradient_13" gradientUnits="userSpaceOnUse" x1="338.1366" y1="918.51447" x2="316.19888" y2="934.54248"><stop offset="0" stop-color="#AAA19B"/><stop offset="1" stop-color="#D2C7C0"/></linearGradient></defs><path fill="url(#gradient_13)" d="M244.656 826.514L245.552 826.275L245.786 827.16L246.606 827.76L246.852 828.279C248.013 827.257 248.711 826.483 249.76 825.356C258.464 840.471 266.433 854.851 276.057 869.525C306.235 914.756 342.157 955.878 382.923 991.86C387.452 995.923 392.148 999.978 396.677 1004.01C401.316 1008.14 413.649 1015.29 412.864 1021.99C409.722 1024.52 405.359 1019.94 402.773 1017.83C354.028 978.076 309.198 931.181 274.79 878.338C266.026 864.878 250.69 841.016 244.656 826.514Z"/><path fill="#CCB197" d="M225.323 585.157C231.325 584.714 249.409 586.801 250.546 591.546C253.128 602.322 236.058 625.071 226.33 629.585C217.943 633.477 208.843 631.07 202.144 629.043C201.524 625.579 218.672 623.183 222.317 614.761L221.694 614.493C214.662 617.688 206.502 619.523 198.769 619.406C201.259 603.6 207.041 587.709 225.323 585.157Z"/><path fill="#CCB197" d="M1046.63 585.847C1068.71 583.15 1079.31 593.17 1083.2 615.004C1083.48 616.531 1082.97 617.43 1082.05 618.498C1073.66 619.922 1064.91 614.795 1060.24 614.526L1060.52 615.8C1063.79 619.775 1069.54 622.553 1074.06 625.002L1075.9 625.76C1077.74 626.511 1079.16 626.706 1080.13 628.352L1079.42 629.313C1056.25 638.961 1041.96 619.728 1033.76 601.005C1028.54 589.099 1035.8 586.861 1046.63 585.847Z"/><path fill="#CCB197" d="M1131.89 487.63C1135.72 487.38 1145.03 486.831 1147.99 489.484C1149.43 490.772 1149.62 493.842 1149.35 495.778C1147.39 509.771 1141.94 527.973 1130.9 537.563C1125.39 542.354 1114.09 540.96 1107.38 540.322C1110.31 537.345 1114.99 533.957 1118.41 531.334C1123.32 527.808 1125.8 522.44 1128.41 517.146C1122.24 521.911 1110.55 529.591 1103.3 532.119C1108.25 512.606 1106.73 493.572 1131.89 487.63Z"/><path fill="#CCB197" d="M137.48 488.288C147.201 487.844 155.618 486.987 163.801 493.696C173.768 501.867 176.617 514.239 177.945 526.491C178.134 528.241 177.991 529.2 176.998 530.332C172.43 529.73 160.307 521.166 154.861 518.654C156.354 521.223 158.265 524.018 159.901 526.537C164.078 532.291 172.11 536.121 173.645 539.434L172.909 540.297C156.362 544.176 143.918 534.03 139.399 518.549C137.353 511.54 132.742 496.85 133.881 490.022C135.027 488.611 135.36 488.918 137.48 488.288Z"/><defs><linearGradient id="gradient_14" gradientUnits="userSpaceOnUse" x1="1133.7744" y1="427.73468" x2="1091.3046" y2="436.6918"><stop offset="0" stop-color="#AE9680"/><stop offset="1" stop-color="#D7BDA8"/></linearGradient></defs><path fill="url(#gradient_14)" d="M1124.64 403.3C1127.7 403.212 1127.93 402.691 1130.12 403.984C1133.78 415.514 1126.68 446.911 1117.45 455.676C1111.71 461.137 1104.93 460.702 1097.85 460.629C1103.18 455.491 1105.97 451.925 1110.09 445.779C1110.94 444.189 1112.26 441.897 1111.26 440.276C1106.81 441.924 1098.25 453.076 1094.3 452.894C1089.14 447.272 1095.69 422.364 1101.67 416.436C1108.55 409.623 1114.75 404.435 1124.64 403.3Z"/><path fill="#CCB197" d="M225.107 514.638C231.456 514.557 246.895 518.116 247.92 522.919C249.867 532.045 232.002 553.631 223.015 556.77C215.413 559.426 207.681 556.649 201.988 554.402L201.025 553.395C202.698 550.024 215.307 547.848 220.846 541.008C215.246 542.021 204.667 546.035 199.184 545.002C198.497 544.872 198.271 543.925 197.876 543.114C197.818 537.419 202.793 528.086 206.662 523.942C213.017 517.134 216.467 515.282 225.107 514.638Z"/><defs><linearGradient id="gradient_15" gradientUnits="userSpaceOnUse" x1="1083.1659" y1="542.36908" x2="1034.3726" y2="527.13696"><stop offset="0" stop-color="#C1A28B"/><stop offset="1" stop-color="#D6C2A4"/></linearGradient></defs><path fill="url(#gradient_15)" d="M1051.25 515.146C1070.63 513.249 1079.12 522.576 1084.54 540.284C1084.99 541.745 1085.15 543.168 1084.39 544.533C1079.94 546.278 1066.47 541.09 1062.4 541.98C1064.17 545.32 1074.2 549.101 1077.93 550.651C1080.43 551.67 1080.24 551.151 1081.59 553.006L1081.12 554.292C1075.42 558.698 1064.3 558.268 1057.95 555.433C1046.22 550.265 1040.39 538.35 1035.25 527.407C1031.82 520.095 1046.2 515.868 1051.25 515.146Z"/><path fill="#CCB197" d="M299.2 890.876C294.604 869.991 295.892 847.185 315.129 834.227C320.773 842.287 324.93 854.787 328.546 863.874C330.261 868.183 337.262 880.091 337.14 884.038C334.277 889.186 325.997 893.281 320.578 895.418C315.9 897.12 313.543 897.341 308.76 897.695C312.492 892.744 316.336 888.452 320.24 883.116C325.216 873.128 325.061 875.754 328.268 863.7C320.585 872.206 309.238 885.692 299.2 890.876Z"/><path fill="#C2AE9C" d="M308.76 897.695C312.492 892.744 316.336 888.452 320.24 883.116C320.032 888.093 319.779 890.455 320.578 895.418C315.9 897.12 313.543 897.341 308.76 897.695Z"/><path fill="#BDB1AA" d="M185.253 556.621C185.532 555.374 185.802 554.126 186.065 552.877C186.211 554.317 186.075 554.68 186.714 555.963C186.975 555.617 187.235 555.271 187.496 554.925C188.171 555.948 188.836 556.979 189.488 558.017C188.922 641.587 201.505 720.213 236.016 796.692C240.391 806.388 245.284 815.73 249.76 825.356C248.711 826.483 248.013 827.257 246.852 828.279L246.606 827.76L245.786 827.16L245.552 826.275L244.656 826.514C239.353 817.848 229.055 793.02 224.966 782.935C214.51 757.451 205.994 731.212 199.491 704.445C191.634 670.858 186.395 634.981 185.244 600.508C184.757 585.958 185.101 571.194 185.253 556.621Z"/><defs><linearGradient id="gradient_16" gradientUnits="userSpaceOnUse" x1="187.22638" y1="430.737" x2="155.3856" y2="433.62851"><stop offset="0" stop-color="#B29D8B"/><stop offset="1" stop-color="#D8BEA8"/></linearGradient></defs><path fill="url(#gradient_16)" d="M153.889 403.753C171.057 402.658 186.721 418.478 188.928 434.786C189.436 438.535 190.554 448.768 188.455 451.766C182.651 452.998 174.446 437.89 169.873 436.955L169.317 439.013C171.591 444.328 176.247 452.334 180.706 456.006C182.182 457.222 182.397 457.233 183.43 458.988L182.976 459.816C178.681 460.89 172.729 459.323 168.988 457.154C155.331 449.233 150.249 416.88 153.889 403.753Z"/><path fill="#CCB197" d="M204.165 470.037C213.857 449.088 222.792 435.949 247.733 448.065C250.608 449.462 251.878 450.044 253.331 452.929C254.012 456.742 248.903 464.158 246.615 467.683C239.331 478.907 226.131 487.407 212.909 480.256C211.487 479.487 211.58 479.12 211.114 477.742C212.365 475.843 213.886 475.68 216.13 475.296C219.103 473.536 220.077 473.098 222.532 470.636L222.345 469.753C215.61 470.333 210.904 470.218 204.165 470.037Z"/><path fill="#9F816F" d="M222.345 469.753C223.59 468.578 227.776 467.333 229.451 467.768C227.853 470.472 219.521 475.132 216.13 475.296C219.103 473.536 220.077 473.098 222.532 470.636L222.345 469.753Z"/><path fill="#CCB197" d="M1072.07 477.286C1072.6 477.407 1072.25 477.278 1072.88 478.053L1072.2 479.229C1068.47 481.496 1059.17 483.051 1054.93 482.569C1043.22 481.236 1030.43 462.317 1031.76 451.282C1035.29 444.982 1049.92 442.382 1056.43 444.083C1064.24 446.124 1067.73 450.617 1071.77 457.012C1073.73 460.791 1078.47 467.202 1074.36 470.363C1071.02 471.128 1059.51 469.474 1055.58 468.81C1061.73 472.939 1066.58 474.041 1072.07 477.286Z"/><path fill="#BDB1AA" d="M1071.77 457.012C1073.73 460.791 1078.47 467.202 1074.36 470.363C1071.02 471.128 1059.51 469.474 1055.58 468.81C1061.73 472.939 1066.58 474.041 1072.07 477.286C1068.3 478.439 1054.57 471.534 1051.99 467.917C1051.43 467.123 1051.89 466.733 1052.22 465.859L1053.8 465.318C1058.17 467.002 1060.96 467.394 1065.56 468.232L1064.09 468.108C1068.34 469.447 1070.12 469.244 1074.56 469.226C1073.93 467.941 1073.05 467.79 1071.56 466.9C1070.75 463.059 1070.36 460.679 1071.77 457.012Z"/><path fill="#BDB1AA" fill-opacity="0.027450981" d="M566.93 194.404C576.983 194.172 592.162 193.925 602.144 194.413C598.892 196.561 596.78 196.269 592.984 196.329C591.637 200.157 594.901 197.988 592.112 202.621C590.963 199.689 591.656 200.231 589.457 198.628C586.853 198.121 584.69 198.868 582.048 199.443C581.36 208.942 581.746 218.162 581.581 227.634C581.324 242.477 580.899 257.022 582.095 271.84C584.931 271.224 587.856 270.894 590.147 269.257C592.504 264.315 591.598 222.142 591.905 213.319L593.71 214.282C597.591 228.457 591.145 265.218 594.547 269.156C597.654 269.516 608.432 265.409 610.93 263.631C610.985 261.135 608.852 261.038 608.84 259.243C608.749 245.94 609.436 232.887 608.491 219.572C608.352 217.608 610.414 216.477 609.633 214.795L611.099 215.158C611.142 221.806 610.68 255.793 612.57 260.189C614.092 260.911 614.029 260.891 615.699 261.119L614.107 262.301C614.585 263.818 614.425 263.486 615.214 264.897C596.742 272.174 577.656 278.768 559.059 285.786C549.261 289.483 537.726 293.252 528.195 297.442C527.711 295.609 527.551 295.613 526.405 294.048L527.422 287.054C527.991 287.643 528.594 288.398 529.132 289.032C528.422 291.284 528.496 291.952 530.001 293.551C534.152 293.954 542.88 289.551 545.766 286.725C549.172 285.381 557.083 282.918 559.074 280.649L559.572 278.569C561.244 278.525 562.743 278.643 564.291 278.169C566.035 274.904 565.687 264.923 565.693 260.724C566.809 255.31 569.311 209.337 564.206 207.593C561.697 209.974 561.439 213.332 561.219 216.592C560.26 221.801 560.069 249.674 559.93 256.618C558.633 251.926 559.503 216.926 559.242 208.76C559.947 207.928 560.213 207.657 561.039 206.884L561.771 206.211C561.471 201.628 558.596 202.847 557.942 199.591L559.115 198.371C562.062 197.962 565.516 197.878 566.366 201.29C565.326 202.149 564.903 202.556 563.975 203.538L564.682 203.991C571.77 208.475 569.759 208.709 570.052 216.474C570.282 222.541 569.916 229.682 569.954 235.637C570.008 244.333 566.215 274.309 568.74 280.652C571.222 278.971 582.977 274.226 585.565 274.323L586.205 273.697L585.589 273.214C582.344 273.729 581.003 274.745 579.363 271.895C579.388 255.172 579.409 238.448 579.379 221.725C579.366 214.278 578.819 206.818 579.159 199.372C579.674 198.753 580.19 198.134 580.705 197.516C579.165 195.973 567.13 197.976 563.81 195.895L564.132 195.069L566.93 194.404Z"/><path fill="#CCB197" d="M201.557 382.848C194.991 381.183 189.709 379.962 185.865 373.247C178.861 361.013 177.798 344.035 180.014 330.398C180.936 324.722 186 324.316 190.022 326.789C206.64 335.227 209.38 353.185 209.296 369.666C208.407 372.859 207.34 376.144 206.359 379.321C203.808 375.648 202.586 373.332 199.623 369.688C197.571 366.186 196.321 363.229 193.045 360.927L192.403 361.346C192.89 367.76 198.444 377.184 201.557 382.848Z"/><path fill="#BDB1AA" d="M199.623 369.688L209.296 369.666C208.407 372.859 207.34 376.144 206.359 379.321C203.808 375.648 202.586 373.332 199.623 369.688Z"/><defs><linearGradient id="gradient_17" gradientUnits="userSpaceOnUse" x1="1106.5123" y1="348.11588" x2="1070.4685" y2="358.23688"><stop offset="0" stop-color="#B49D84"/><stop offset="1" stop-color="#D6BCA9"/></linearGradient></defs><path fill="url(#gradient_17)" d="M1086.39 373.64C1088.56 369.121 1090.97 365.583 1090.38 360.704L1089.53 360.6C1084.93 365.181 1081.91 373.773 1076.72 378.024L1075.69 378.018C1071.37 372.537 1073.47 359.348 1074.46 352.659C1076.17 341.604 1086.35 324.993 1098.79 325.318C1103.96 325.452 1103.13 336.354 1103.26 339.819C1103.71 351.764 1102.05 372.815 1089.99 379.252C1087.49 380.992 1083.67 382.722 1080.86 384.113C1082.29 380.82 1084.61 376.867 1086.39 373.64Z"/><path fill="#BDB1AA" d="M1086.39 373.64C1087.93 375.694 1088.1 378.346 1089.99 379.252C1087.49 380.992 1083.67 382.722 1080.86 384.113C1082.29 380.82 1084.61 376.867 1086.39 373.64Z"/><path fill="#CCB197" d="M1030.49 341.425C1025.27 333.364 1014.72 308.635 1020.56 300.635C1026.43 297.668 1038.8 306.586 1042.99 310.8C1053.96 321.82 1055.04 337.446 1054.94 352.08C1049.26 346.192 1044.74 341.002 1039.3 335.078L1038.52 336.134C1040.65 343.783 1046.91 349.252 1052.48 354.644C1042.18 351.07 1038.13 349.346 1030.49 341.425Z"/><path fill="#BDB1AA" d="M1030.49 341.425C1033.11 341.295 1034.9 341.504 1036.5 339.291C1036.01 336.754 1035 333.09 1037.63 331.556C1039.12 332.947 1038.92 333.015 1039.3 335.078L1038.52 336.134C1040.65 343.783 1046.91 349.252 1052.48 354.644C1042.18 351.07 1038.13 349.346 1030.49 341.425Z"/><path fill="#CCB197" d="M228.189 351.276C225.846 324.703 235.588 303.46 264.372 299.409C262.021 317.217 259.239 342.401 240.63 351.061L232.141 354.459C234.429 351.66 237.463 348.463 239.938 345.732C241.499 343.137 244.286 339.135 243.558 336.111C241.657 336.556 231.775 348.594 228.189 351.276Z"/><path fill="#BDB1AA" d="M239.938 345.732C241.343 348.11 240.834 347.714 240.63 351.061L232.141 354.459C234.429 351.66 237.463 348.463 239.938 345.732Z"/><path fill="#CCB197" d="M240.628 373.864C247.346 372.884 265.965 375.659 267.743 383.489C266.962 389.823 256.928 401.692 251.695 405.677C246.473 409.654 236.924 408.945 230.656 407.96C228.45 407.554 227.712 407.576 225.844 406.277L225.725 405.058C228.332 402.069 239.503 399.653 244.365 397.025C237.917 396.967 227.156 400.079 222.196 396.779C218.413 389.5 235.347 377.041 240.628 373.864Z"/><path fill="#CCB197" d="M1033.25 373.964C1038.31 373.63 1041 373.618 1045.6 376.033C1050.26 378.476 1063.65 391.777 1059.7 397.287C1054.15 399.224 1044.84 397.412 1038.7 396.73C1047.66 401.955 1052.24 401.128 1059.25 404.675C1052.6 410.55 1036.73 409.802 1029.84 404.135C1014.5 391.514 1007.09 377.524 1033.25 373.964Z"/><path fill="#D1D0CE" d="M545.704 208.016C548.837 207.675 556.559 206.377 558.821 208.665C558.803 212.169 558.842 215.674 558.938 219.177C558.771 232.858 558.193 249.445 558.811 262.972C558.707 268.652 558.41 275.067 559.074 280.649C557.083 282.918 549.172 285.381 545.766 286.725C544.502 274.368 545.35 257.674 545.073 244.874C544.939 238.682 544.52 213.098 545.704 208.016Z"/><path fill="#BDB1AA" d="M545.704 208.016C548.837 207.675 556.559 206.377 558.821 208.665C558.803 212.169 558.842 215.674 558.938 219.177C554.756 216.218 556.559 214.364 553.453 210.612C550.91 209.383 552.065 209.425 549.754 209.612L549.055 211.536C547.684 209.374 547.802 209.414 545.704 208.016Z"/><path fill="#CCB197" d="M955.973 865.229C956.766 861.975 965.732 836.743 968.961 835.656C973.467 834.14 982.292 848.34 983.12 852.545C987.12 864.923 986.361 878.083 984.095 890.713C976.484 886.21 969.618 880.551 963.745 873.939C961.08 871.103 958.489 868.198 955.973 865.229Z"/><path fill="#BDB1AA" d="M636.676 206.915C643.154 207.365 649.616 207.292 656.109 207.317C656.949 220.784 657.497 238.945 654.554 251.723C647.337 250.513 642.819 249.856 635.722 251.796C634.002 239.788 633.881 222.587 634.717 210.261C634.867 208.051 635.305 207.916 636.676 206.915Z"/><path fill="#A29D9B" d="M641.589 211.745C643.234 214.64 642.684 242.021 642.195 246.383C639.471 241.924 641.307 218.353 641.589 211.745Z"/><path fill="#EAE8EA" d="M764.958 199.009C767.614 198.955 769.069 198.626 771.301 199.836C774.196 203.609 771.584 276.249 772.586 286.266C772.813 288.538 772.69 294.17 770.613 295.766C768.013 295.687 765.41 295.869 763.473 294.178C761.119 285.65 763.389 214.33 763.232 200.624C763.222 199.764 764.026 199.579 764.958 199.009Z"/><path fill="#EAE8EA" d="M526.405 294.048C525.93 294.232 525.453 294.409 524.974 294.581C522.86 295.33 520.422 296.218 518.354 295.215C517.733 293.485 517.42 291.671 517.413 289.828C517.304 261.23 517.749 232.653 517.29 204.049C517.266 202.55 517.37 200.641 518.382 199.487C520.912 198.371 522.85 198.857 525.653 199.109C528.284 202.973 527.112 252.822 527.077 260.73C527.097 264.748 526.935 284.278 527.422 287.054L526.405 294.048Z"/><path fill="#F5F5F4" d="M525.653 199.109C528.284 202.973 527.112 252.822 527.077 260.73C524.374 260.28 525.255 260.946 523.857 259.342C522.786 245.529 523.728 216.75 522.797 201.522C522.733 200.476 524.563 199.74 525.653 199.109Z"/><path fill="#D1D0CE" d="M520.349 261.069C521.182 260.196 522.546 260.11 523.483 260.87C524.42 261.631 524.615 262.983 523.933 263.978C523.439 264.697 522.584 265.078 521.72 264.964C520.855 264.85 520.128 264.259 519.839 263.437C519.549 262.614 519.746 261.699 520.349 261.069Z"/><path fill="#A29D9B" d="M185.253 556.621C185.405 537.175 187.487 519.454 189.809 500.304C193.228 472.107 196.408 443.94 204.607 416.582C209.708 399.89 213.264 376.878 221.972 362.338C217.371 384.593 211.405 404.984 205.456 426.79C201.239 442.251 199.894 460.913 197.255 476.756C194.47 497.037 191.107 517.205 190.83 537.747C190.741 544.35 189.381 551.485 189.488 558.017C188.836 556.979 188.171 555.948 187.496 554.925C187.235 555.271 186.975 555.617 186.714 555.963C186.075 554.68 186.211 554.317 186.065 552.877C185.802 554.126 185.532 555.374 185.253 556.621Z"/><path fill="#F5F5F4" d="M582.048 199.443C584.69 198.868 586.853 198.121 589.457 198.628C591.656 200.231 590.963 199.689 592.112 202.621C591.691 206.251 591.838 209.678 591.905 213.319C591.598 222.142 592.504 264.315 590.147 269.257C587.856 270.894 584.931 271.224 582.095 271.84C580.899 257.022 581.324 242.477 581.581 227.634C581.746 218.162 581.36 208.942 582.048 199.443Z"/><path fill="#EAE8EA" d="M704.991 199.999C706.804 199.203 709.984 198.992 711.978 198.796C712.989 199.832 713.895 200.381 713.981 201.879C714.289 207.281 714.079 213.558 714.055 218.931L713.857 261.296C713.811 265.23 713.764 269.026 712.829 272.857C711.998 273.366 711.975 273.536 711.102 273.679C709.635 273.277 707.074 272.691 706.03 271.698C702.759 268.588 704.182 258.374 704.355 253.728C703.901 247.728 703.627 203.446 704.991 199.999Z"/><path fill="#D1D0CE" d="M711.978 198.796C712.989 199.832 713.895 200.381 713.981 201.879C714.289 207.281 714.079 213.558 714.055 218.931L713.857 261.296C713.811 265.23 713.764 269.026 712.829 272.857C711.998 273.366 711.975 273.536 711.102 273.679C712.189 270.105 712.254 270.409 711.884 266.617L711.376 268.946C710.323 255.456 711.678 240.824 711.682 227.185C711.684 222.023 710.371 201.787 711.978 198.796Z"/><path fill="#F5F5F4" d="M704.991 199.999L706.389 200.492C707.963 206.221 706.786 260.404 705.42 267.38C705.194 263.843 704.931 256.946 704.355 253.728C703.901 247.728 703.627 203.446 704.991 199.999Z"/><path fill="#CCB197" d="M934.838 902.139L936.093 902.709C941.148 909.739 940.776 947.393 932.805 948.368C930.227 947.371 929.54 946.421 927.47 944.466C913.468 932.551 915.536 932.121 925.529 916.102C928.478 911.375 931.303 906.534 934.838 902.139Z"/><path fill="#F5F5F4" d="M674.676 199.005L683.01 198.64C683.631 214.896 683.438 243.198 682.82 260.262C682.509 260.729 682.197 261.196 681.886 261.664C678.947 261.335 675.721 261.349 673.776 259.233C672.794 252.738 672.355 202.215 674.676 199.005Z"/><path fill="#D1D0CE" d="M708.921 89.8693C711.811 90.3961 710.8 89.6804 712.382 91.5753C713.59 96.7088 713.576 144.16 712.831 150.738C712.062 153.379 712.082 154.278 710.086 155.935C707.898 156.288 707.407 156.07 705.607 154.473C701.396 148.277 706.305 111.474 703.659 101.153L702.997 100.846C701.054 104.064 701.734 129.093 701.703 134.741C699.822 128.374 700.613 104.39 702.797 97.4991C703.13 96.449 707.761 95.5245 709.501 93.6461C710.073 91.0234 710.246 92.242 708.921 89.8693Z"/><path fill="#EAE8EA" d="M705.607 154.473C706.537 150.214 706.62 105.313 706.002 100.435L705.885 99.5564C706.997 97.8949 706.255 98.5514 708.417 97.8222L709.548 98.4778C709.7 100.449 709.232 100.496 708.165 102.569C709.71 102.743 709.129 102.38 710.099 103.368C709.053 108.695 711.112 145.612 712.831 150.738C712.062 153.379 712.082 154.278 710.086 155.935C707.898 156.288 707.407 156.07 705.607 154.473Z"/><path fill="#CCB197" d="M345.631 909.289C346.587 906.808 346.191 906.672 347.961 905.262C349.99 905.803 350.672 907.193 351.915 909.119C356.046 915.789 361.194 923.482 364.466 930.502C366.323 934.49 353.08 946.935 349.311 947.951C344.528 945.336 343.377 924.939 344.11 919.306C344.512 916.219 345.204 912.439 345.631 909.289Z"/><path fill="#BDB1AA" d="M345.631 909.289C346.587 906.808 346.191 906.672 347.961 905.262C349.99 905.803 350.672 907.193 351.915 909.119C349.368 910.624 348.236 910.18 345.631 909.289Z"/><path fill="#F5F5F4" d="M611.353 199.816C613.918 198.774 614.008 198.746 616.734 198.85C619.903 200.712 620.291 203.228 620.336 206.863C620.42 213.766 619.951 220.7 619.918 227.609C619.845 233.785 620.047 255.438 617.978 259.567L615.699 261.119C614.029 260.891 614.092 260.911 612.57 260.189C610.68 255.793 611.142 221.806 611.099 215.158L611.353 199.816Z"/><path fill="#D1D0CE" d="M611.353 199.816C613.918 198.774 614.008 198.746 616.734 198.85C619.903 200.712 620.291 203.228 620.336 206.863C620.42 213.766 619.951 220.7 619.918 227.609C619.373 225.422 618.39 204.62 618.136 200.896C616.153 199.904 613.712 200.006 611.353 199.816Z"/><path fill="#C2AE9C" d="M955.002 866.243C956.093 869.352 957.61 872.295 959.509 874.989C962.529 882.044 967.861 890.129 972.032 896.648L971.302 897.453C963.416 897.606 950.556 890.285 945.41 884.29C947.567 879.876 952.122 869.15 955.002 866.243Z"/><defs><linearGradient id="gradient_18" gradientUnits="userSpaceOnUse" x1="557.85181" y1="242.28027" x2="569.66919" y2="244.48218"><stop offset="0" stop-color="#E6E7E2" stop-opacity="0.98039216"/><stop offset="1" stop-color="#D6D2D6"/></linearGradient></defs><path fill="url(#gradient_18)" d="M562.469 234.962C563.612 229.697 561.846 213.456 564.367 210.776C566.114 214.362 564.792 252.715 565.693 260.724C565.687 264.923 566.035 274.904 564.291 278.169L563.425 277.463C561.905 272.941 562.467 241.833 562.469 234.962Z"/><path fill="#BDB1AA" d="M1060.12 763.584C1062.55 764.321 1063.79 764.062 1064.35 766.824C1060.62 776.005 1056.8 785.149 1052.89 794.255L1047.51 793.767C1052.24 785.438 1056.58 772.826 1060.12 763.584Z"/><path fill="#929190" d="M559.93 256.618C560.069 249.674 560.26 221.801 561.219 216.592C561.606 221.248 560.722 232.592 562.469 234.962C562.467 241.833 561.905 272.941 563.425 277.463L564.291 278.169C562.743 278.643 561.244 278.525 559.572 278.569L559.074 280.649C558.41 275.067 558.707 268.652 558.811 262.972L559.756 267.126C559.73 264.615 559.946 262.279 560.131 259.78L559.93 256.618Z"/><path fill="#757577" d="M560.131 259.78C560.469 261.189 561.361 266.562 561.535 267.027L561.055 263.643C562.597 269.21 561.837 273.119 559.572 278.569L559.074 280.649C558.41 275.067 558.707 268.652 558.811 262.972L559.756 267.126C559.73 264.615 559.946 262.279 560.131 259.78Z"/><path fill="#D1D0CE" d="M561.219 216.592C561.439 213.332 561.697 209.974 564.206 207.593C569.311 209.337 566.809 255.31 565.693 260.724C564.792 252.715 566.114 214.362 564.367 210.776C561.846 213.456 563.612 229.697 562.469 234.962C560.722 232.592 561.606 221.248 561.219 216.592Z"/><path fill="#BDB1AA" d="M802.477 346.701C808.824 348.89 814.531 350.22 819.708 354.751L820.228 355.995C816.676 358.633 802.247 353.353 797.988 351.831C798.756 348.287 799.317 348.062 802.477 346.701Z"/><path fill="#929190" d="M913.644 938.621C916.81 940.786 923.356 952.816 922.852 956.944C911.942 955.298 913.116 947.361 913.644 938.621Z"/><path fill="#757577" d="M369.776 939.234L370.362 939.919C369.856 947.237 366.664 953.063 360.312 956.79L359.682 955.569C360.436 949.084 365.531 944.125 369.776 939.234Z"/><path fill="#757577" fill-opacity="0.98431373" d="M636.726 200.762C642.041 198.692 649.822 198.943 655.193 200.654C651.564 202.587 640.069 202.9 636.726 200.762Z"/><path fill="#757671" fill-opacity="0.6156863" d="M558.821 208.665L559.242 208.76C559.503 216.926 558.633 251.926 559.93 256.618L560.131 259.78C559.946 262.279 559.73 264.615 559.756 267.126L558.811 262.972C558.193 249.445 558.771 232.858 558.938 219.177C558.842 215.674 558.803 212.169 558.821 208.665Z"/><path fill="#BEA28E" fill-opacity="0.011764706" d="M955.002 866.243L955.973 865.229C958.489 868.198 961.08 871.103 963.745 873.939C962.446 874.212 960.671 874.483 959.509 874.989C957.61 872.295 956.093 869.352 955.002 866.243Z"/></svg>